<?xml version="1.0" encoding="UTF-8" standalone="no"?><!DOCTYPE svg PUBLIC "-//W3C//DTD SVG 1.1//EN" "http://www.w3.org/Graphics/SVG/1.1/DTD/svg11.dtd"><svg width="100%" height="100%" viewBox="0 0 768 1014" version="1.1" xmlns="http://www.w3.org/2000/svg" xmlns:xlink="http://www.w3.org/1999/xlink" xml:space="preserve" xmlns:serif="http://www.serif.com/" style="fill-rule:evenodd;clip-rule:evenodd;stroke-linecap:round;stroke-miterlimit:1;"><rect id="GDBot" x="0" y="0" width="767.237" height="1014" style="fill:#ebebeb;"/><g id="LOGO"><rect x="101.29" y="102.982" width="14.987" height="13.946" style="fill:#2c2c2c;"/><rect x="101.29" y="131.915" width="14.987" height="13.946" style="fill:#2c2c2c;"/><path d="M87.344,131.915c-18.116,-2.929 -23.874,-17.805 -23.007,-29.387c2.059,-27.525 35.374,-39.959 51.703,-26.668l-2.721,17.779c-10.405,-5.811 -29.712,-5.046 -31.385,10.885c-0.769,7.321 3.394,10.955 9.669,12.404l9.687,-0l-0,14.987l-13.946,-0Z" style="fill:#2c2c2c;"/><path d="M116.277,116.928l-0,14.987l13.946,-0l0,-14.987l-13.946,-0Z" style="fill:#2c2c2c;"/></g><g id="Abdomen"><path d="M336.88,482.954l117.415,-11.788l-3.493,47.981l-15.099,55.052c-0,-0 -12.752,31.162 -25.209,34.869c-29.455,8.766 -61.517,-12.277 -61.517,-12.277c-3.292,-14.849 -5.463,-39.597 -1.69,-53.804l4.057,-24.308l-14.464,-35.725Z" style="fill:#121212;"/><path d="M360.2,590.944c2.822,1.998 5.814,-4.358 6.677,-14.184c0.862,-9.826 -0.729,-19.424 -3.552,-21.422" style="fill:none;stroke:#31b5dd;stroke-width:6.25px;"/><path d="M353.817,590.911c-2.193,-2.261 -3.274,-12.074 -2.412,-21.899c0.863,-9.826 3.344,-15.968 5.538,-13.707" style="fill:none;stroke:#31b5dd;stroke-width:4.58px;"/><path d="M373.791,498.576l23,40c0,0 -0.369,5.375 -4,8c-3.631,2.626 -7,3 -7,3c0,0 -23.781,-46.974 -23,-52c1.306,-8.395 10.685,-2.467 11,1Z" style="fill:#d44c77;"/><clipPath id="_clip1"><path d="M373.791,498.576l23,40c0,0 -0.369,5.375 -4,8c-3.631,2.626 -7,3 -7,3c0,0 -23.781,-46.974 -23,-52c1.306,-8.395 10.685,-2.467 11,1Z"/></clipPath><g clip-path="url(#_clip1)"><path d="M457.971,524.441c-1.388,-0.188 -11.472,-9.014 -13.681,-7.338c-2.209,1.675 -2.246,8.506 -2.526,10.706c-0.28,2.2 1.26,12.113 5.828,18.842c4.569,6.728 9.717,-10.645 10.258,-12.991c0.542,-2.347 -0.623,-10.422 -0.623,-10.422" style="fill:#fd6785;"/></g><path d="M402.791,517.576c-1.173,1.564 -4.596,3.895 -6,4c-1.404,0.106 -3.906,0.33 -5,-2c-1.667,-3.551 -4,-14 -4,-14c0,0 16.174,10.437 15,12Z" style="fill:#2c2c2c;"/><path d="M404.791,566.576l-32,-19c0,0 4.203,14.399 4,22c-0.203,7.601 17,15 17,15l11,-18Z" style="fill:#2c2c2c;"/><path d="M380.791,587.576l-3,4l-3,23l6,-12l0,-15Z" style="fill:#2c2c2c;"/><path d="M406.791,524.576c0,0 -9.825,0.009 -10,2c-0.174,1.992 0.305,8.45 2,9c1.695,0.551 9,-3 9,-3l-1,-8Z" style="fill:#2c2c2c;"/><path d="M432.791,499.438c-0.479,1.605 4.921,25.239 3,25.138c-1.921,-0.1 -7.324,-4.66 -7,-5.586c0.324,-0.926 1,-21.414 1,-21.414c0,0 3.479,0.258 3,1.862Z" style="fill:#2c2c2c;"/><path d="M444.791,492.576c-4.282,0.115 -6.415,34.46 -6,39c0.415,4.541 -0.717,6.231 2,6c2.718,-0.23 5,-5 5,-5c0,0 3.283,-40.114 -1,-40Z" style="fill:#d44c77;"/><clipPath id="_clip2"><path d="M444.791,492.576c-4.282,0.115 -6.415,34.46 -6,39c0.415,4.541 -0.717,6.231 2,6c2.718,-0.23 5,-5 5,-5c0,0 3.283,-40.114 -1,-40Z"/></clipPath><g clip-path="url(#_clip2)"><path d="M391.791,516.576c-1.393,0.137 -13.235,-6.137 -15,-4c-1.765,2.138 -0.233,8.795 0,11c0.233,2.206 4.009,11.501 10,17c5.992,5.5 7.012,-12.592 7,-15c-0.012,-2.407 -3,-10 -3,-10" style="fill:#fd6785;"/></g></g><g id="Arm_Left"><g id="Hand_Left"><path id="HandPiece_Blue_Back" d="M563.402,551.357l-44.846,-59.589c0,0 -4.668,-7.801 -13.191,-6.5c-8.523,1.301 -36.893,11.403 -36.893,11.403l28.254,100.484c0,-0 3.086,4.118 6.192,-0.774c3.107,-4.892 19.344,-27.67 22.065,-27.997c2.72,-0.328 39.976,23.525 39.976,23.525l-1.557,-40.552Z" style="fill:#1c88a8;"/><clipPath id="_clip3"><path d="M563.402,551.357l-44.846,-59.589c0,0 -4.668,-7.801 -13.191,-6.5c-8.523,1.301 -36.893,11.403 -36.893,11.403l28.254,100.484c0,-0 3.086,4.118 6.192,-0.774c3.107,-4.892 19.344,-27.67 22.065,-27.997c2.72,-0.328 39.976,23.525 39.976,23.525l-1.557,-40.552Z"/></clipPath><g clip-path="url(#_clip3)"><path d="M557.729,565.648c-5.148,-3.738 -39.491,-47.348 -45.421,-48.65c-5.931,-1.303 -26.339,-1.489 -28.34,0.826c-2.002,2.315 5.643,62.562 9.479,65.368c3.836,2.806 6.236,3.774 12.787,2.476c6.552,-1.298 24.77,-4.096 26.698,-4.696c1.929,-0.6 22.148,-0.052 22.148,-0.052c0,-0 7.797,-11.533 2.649,-15.272Z" style="fill:#187692;"/><path d="M519.626,564.979c-3.297,-1.477 -24.058,-50.619 -29.869,-51.953c-5.812,-1.335 8.922,94.995 4.728,97.201c-4.194,2.205 -16.437,2.626 -19.239,-8.461c-2.802,-11.087 -16.481,-94.972 -14.636,-95.962c1.845,-0.991 27.064,-11.254 31.939,-10.784c4.875,0.47 11.717,6.808 13.047,9.234c1.331,2.426 13.482,59.435 13.482,59.435" style="fill:#31b5dd;"/></g><path id="Ulna" d="M506.956,595.584c-5.694,-6.624 -4.644,-16.228 2.343,-21.435l25.321,-18.866c6.988,-5.207 17.284,-4.056 22.978,2.568l54.333,63.202c5.695,6.624 4.645,16.229 -2.343,21.435l-25.32,18.867c-6.988,5.206 -17.284,4.055 -22.978,-2.569l-54.334,-63.202Z" style="fill:#121212;"/><clipPath id="_clip4"><path d="M506.956,595.584c-5.694,-6.624 -4.644,-16.228 2.343,-21.435l25.321,-18.866c6.988,-5.207 17.284,-4.056 22.978,2.568l54.333,63.202c5.695,6.624 4.645,16.229 -2.343,21.435l-25.32,18.867c-6.988,5.206 -17.284,4.055 -22.978,-2.569l-54.334,-63.202Z"/></clipPath><g clip-path="url(#_clip4)"><path d="M527.85,563.131c0,0 -11.887,2.943 -10.257,11.079c1.631,8.135 4.12,7.956 4.618,6.906c0.499,-1.051 0.448,9.845 3.535,11.781c3.087,1.936 14.452,-0.932 19.87,-4.498c5.419,-3.565 10.84,-10.674 12.755,-11.241c1.915,-0.567 7.356,-0.959 8.686,-2.167c1.331,-1.209 10.792,-2.225 4.886,-3.522c-5.907,-1.297 -11.644,1.295 -13.14,0.055c-1.497,-1.239 2.481,1.939 -3.315,-5.389c-5.795,-7.328 -7.035,-9.127 -9.126,-10.616c-2.091,-1.49 -0.792,9.384 -5.262,10.753c-4.47,1.369 -13.25,-3.141 -13.25,-3.141Z" style="fill:#202020;"/></g><g id="HandPiece"><path d="M566.294,566.401c-6.754,-2.366 -28.425,10.425 -40.553,20.047c-3.305,2.622 -15.323,-16.245 -19.898,-18.576c-4.574,-2.33 -5.648,-4.752 -16.129,-2.633c-17.757,3.589 -2.164,34.993 1.799,39.338c31.765,44.75 59.852,75.873 83.011,81.73c23.159,5.857 52.774,-14.125 55.945,-46.585c11.435,-0.083 -63.305,-127.54 -88.848,-119.697c-1.43,0.439 -6.046,5.723 -3.53,10.678c6.916,13.625 29.503,36.154 28.203,35.698Z" style="fill:#fff;"/><clipPath id="_clip5"><path d="M566.294,566.401c-6.754,-2.366 -28.425,10.425 -40.553,20.047c-3.305,2.622 -15.323,-16.245 -19.898,-18.576c-4.574,-2.33 -5.648,-4.752 -16.129,-2.633c-17.757,3.589 -2.164,34.993 1.799,39.338c31.765,44.75 59.852,75.873 83.011,81.73c23.159,5.857 52.774,-14.125 55.945,-46.585c11.435,-0.083 -63.305,-127.54 -88.848,-119.697c-1.43,0.439 -6.046,5.723 -3.53,10.678c6.916,13.625 29.503,36.154 28.203,35.698Z"/></clipPath><g clip-path="url(#_clip5)"><path d="M544.496,554.759c0,0 45.652,45.022 48.003,69.583c2.35,24.561 27.535,-21.582 27.535,-21.582c0,-0 8.484,15.498 16.745,29.148c39.292,64.918 -72.712,107.756 -106.917,63.755c-3.021,-3.886 -58.474,-84.393 -60.53,-89.18c-2.056,-4.788 -2.977,-48.002 -2.977,-48.002l78.141,-3.722Z" style="fill:#e3eff3;"/><path d="M554.667,563.566c-0.87,3.907 -16.532,26.042 -13.891,33.985c2.641,7.943 19.565,27.939 20.59,35.722c1.025,7.783 -7.299,32.067 -15.38,38.203c-8.081,6.136 -47.317,4.88 -59.661,-17.736c-12.343,-22.616 -25.124,-69.182 -26.42,-74.297c-1.296,-5.115 8.153,-22.129 10.295,-22.45c2.142,-0.322 85.337,2.665 84.467,6.573Z" style="fill:#b6d6e0;"/><path d="M618.508,591.098c-31.674,-14.396 -98.82,36.392 -82.906,104.627" style="fill:none;stroke:#b6d6e0;stroke-width:8.33px;stroke-linejoin:round;stroke-miterlimit:1.5;"/></g><path d="M502.804,566.176c-1.377,3.225 -9.551,4.41 -16.798,1.274c-1.369,-0.593 -1.154,0.782 -2.891,4.224c-6.762,13.401 -10.935,-6.922 -11.267,-11.577c-0.974,-13.676 34.574,-2.392 30.956,6.079Z" style="fill:#fd6785;"/><clipPath id="_clip6"><path d="M502.804,566.176c-1.377,3.225 -9.551,4.41 -16.798,1.274c-1.369,-0.593 -1.154,0.782 -2.891,4.224c-6.762,13.401 -10.935,-6.922 -11.267,-11.577c-0.974,-13.676 34.574,-2.392 30.956,6.079Z"/></clipPath><g clip-path="url(#_clip6)"><path d="M446.167,561.247c1.216,4.734 3.063,12.177 5.415,13.254c2.352,1.078 13.987,-4.015 13.071,3.186c-0.917,7.201 -2,36.69 -1.783,39.96c0.216,3.271 -9.726,22.025 -13.137,16.231c-3.411,-5.794 -18.81,-52.495 -18.616,-53.884c0.194,-1.388 13.835,-23.482 15.05,-18.747Z" style="fill:#d44c77;"/></g><path d="M537.976,534.569c2.129,2.786 9.733,-7.828 15.599,-5.968c13.75,4.362 3.66,-4.34 -3.341,-8.537c-11.76,-7.048 -17.849,7.185 -12.258,14.505Z" style="fill:#fd6785;"/><clipPath id="_clip7"><path d="M537.976,534.569c2.129,2.786 9.733,-7.828 15.599,-5.968c13.75,4.362 3.66,-4.34 -3.341,-8.537c-11.76,-7.048 -17.849,7.185 -12.258,14.505Z"/></clipPath><g clip-path="url(#_clip7)"><path d="M587.687,516.345c-0.013,4.888 0.03,12.556 -1.985,14.179c-2.014,1.624 -14.545,-0.448 -11.884,6.306c2.661,6.754 10.97,35.068 11.566,38.291c0.595,3.223 14.848,18.953 16.727,12.497c1.88,-6.455 5.309,-55.51 4.779,-56.808c-0.53,-1.297 -19.19,-19.353 -19.203,-14.465Z" style="fill:#d44c77;"/></g></g><g id="Hand"><g id="Pinky"><path d="M562.482,639.724c-0.297,-4.655 -4.27,-8.752 -8.867,-9.142l-16.659,-1.414c-4.597,-0.39 -8.089,3.073 -7.792,7.728l2.997,47.044c0.296,4.656 4.269,8.752 8.866,9.142l16.659,1.414c4.598,0.39 8.089,-3.073 7.793,-7.728l-2.997,-47.044Z" style="fill:#121212;"/><clipPath id="_clip8"><path d="M562.482,639.724c-0.297,-4.655 -4.27,-8.752 -8.867,-9.142l-16.659,-1.414c-4.597,-0.39 -8.089,3.073 -7.792,7.728l2.997,47.044c0.296,4.656 4.269,8.752 8.866,9.142l16.659,1.414c4.598,0.39 8.089,-3.073 7.793,-7.728l-2.997,-47.044Z"/></clipPath><g clip-path="url(#_clip8)"><path d="M585.222,649.273c0.278,-4.614 -3.053,-7.649 -7.436,-6.773l-15.883,3.175c-4.383,0.876 -8.167,5.333 -8.446,9.947l-1.25,20.66c-0.279,4.614 3.053,7.648 7.436,6.772l15.883,-3.174c4.383,-0.876 8.167,-5.333 8.446,-9.947l1.25,-20.66Z" style="fill:#2c2c2c;"/></g><path d="M528.925,694.993c2.228,4.766 7.1,7.687 10.873,6.517c5.461,0.593 10.871,-0.606 16.189,-5.018c3.773,-1.169 5.028,-5.989 2.8,-10.755l-8.074,-17.273c-9.177,-14.857 -32.968,-11.632 -29.861,9.256l8.073,17.273Z" style="fill:#121212;"/><clipPath id="_clip9"><path d="M528.925,694.993c2.228,4.766 7.1,7.687 10.873,6.517c5.461,0.593 10.871,-0.606 16.189,-5.018c3.773,-1.169 5.028,-5.989 2.8,-10.755l-8.074,-17.273c-9.177,-14.857 -32.968,-11.632 -29.861,9.256l8.073,17.273Z"/></clipPath><g clip-path="url(#_clip9)"><path d="M522.397,680.641c1.528,3.267 5.438,4.72 8.728,3.244l11.922,-5.352c3.29,-1.477 4.721,-5.329 3.194,-8.596l-8.319,-17.797c-1.527,-3.267 -5.438,-4.721 -8.728,-3.244l-11.921,5.352c-3.29,1.477 -4.721,5.329 -3.194,8.596l8.318,17.797Z" style="fill:#2c2c2c;"/></g></g><g id="Ring"><path d="M572.793,615.923c-1.797,-4.305 -6.888,-6.884 -11.362,-5.755l-16.21,4.091c-4.474,1.129 -6.647,5.541 -4.849,9.845l23.629,56.602c1.797,4.305 6.888,6.883 11.362,5.754l16.21,-4.091c4.474,-1.129 6.647,-5.54 4.85,-9.845l-23.63,-56.601Z" style="fill:#121212;"/><clipPath id="_clip10"><path d="M572.793,615.923c-1.797,-4.305 -6.888,-6.884 -11.362,-5.755l-16.21,4.091c-4.474,1.129 -6.647,5.541 -4.849,9.845l23.629,56.602c1.797,4.305 6.888,6.883 11.362,5.754l16.21,-4.091c4.474,-1.129 6.647,-5.54 4.85,-9.845l-23.63,-56.601Z"/></clipPath><g clip-path="url(#_clip10)"><path d="M597.953,618.389c-1.378,-4.524 -5.535,-6.141 -9.278,-3.609l-13.564,9.176c-3.743,2.533 -5.664,8.262 -4.286,12.786l8.521,27.994c1.377,4.524 5.534,6.142 9.277,3.609l13.564,-9.176c3.743,-2.532 5.664,-8.261 4.287,-12.786l-8.521,-27.994Z" style="fill:#2c2c2c;"/></g><path d="M564.543,692.209c3.66,3.781 9.217,4.954 12.404,2.619c5.355,-1.218 10.08,-4.114 13.67,-10.018c3.186,-2.335 2.802,-7.3 -0.857,-11.081l-13.261,-13.699c-13.516,-11.057 -34.959,-0.257 -25.216,18.48l13.26,13.699Z" style="fill:#121212;"/><clipPath id="_clip11"><path d="M564.543,692.209c3.66,3.781 9.217,4.954 12.404,2.619c5.355,-1.218 10.08,-4.114 13.67,-10.018c3.186,-2.335 2.802,-7.3 -0.857,-11.081l-13.261,-13.699c-13.516,-11.057 -34.959,-0.257 -25.216,18.48l13.26,13.699Z"/></clipPath><g clip-path="url(#_clip11)"><path d="M553.696,680.767c2.508,2.591 6.679,2.691 9.308,0.223l9.528,-8.944c2.629,-2.468 2.727,-6.575 0.219,-9.167l-13.663,-14.115c-2.509,-2.592 -6.68,-2.692 -9.309,-0.224l-9.527,8.944c-2.63,2.468 -2.728,6.576 -0.219,9.167l13.663,14.116Z" style="fill:#2c2c2c;"/></g></g><g id="Middle"><path d="M592.88,624.37c-2.965,-4.171 -9.036,-5.699 -13.55,-3.409l-16.356,8.299c-4.514,2.29 -5.772,7.536 -2.808,11.708l30.893,43.474c2.964,4.171 9.035,5.699 13.549,3.409l16.357,-8.299c4.514,-2.29 5.772,-7.536 2.807,-11.708l-30.892,-43.474Z" style="fill:#121212;"/><clipPath id="_clip12"><path d="M592.88,624.37c-2.965,-4.171 -9.036,-5.699 -13.55,-3.409l-16.356,8.299c-4.514,2.29 -5.772,7.536 -2.808,11.708l30.893,43.474c2.964,4.171 9.035,5.699 13.549,3.409l16.357,-8.299c4.514,-2.29 5.772,-7.536 2.807,-11.708l-30.892,-43.474Z"/></clipPath><g clip-path="url(#_clip12)"><path d="M625.503,620.839c-2.404,-4.465 -7.264,-5.373 -10.847,-2.025l-12.983,12.131c-3.583,3.347 -4.541,9.69 -2.137,14.155l10.762,19.994c2.404,4.465 7.264,5.373 10.847,2.025l12.983,-12.131c3.583,-3.347 4.541,-9.69 2.137,-14.155l-10.762,-19.994Z" style="fill:#2c2c2c;"/></g><path d="M596.776,681.806c4.83,3.16 11.061,3.072 13.905,-0.198c5.437,-2.599 9.791,-6.841 12.205,-14.027c2.845,-3.27 1.233,-8.49 -3.597,-11.65l-17.504,-11.452c-17.138,-8.561 -37.47,8.183 -22.513,25.875l17.504,11.452Z" style="fill:#121212;"/><clipPath id="_clip13"><path d="M596.776,681.806c4.83,3.16 11.061,3.072 13.905,-0.198c5.437,-2.599 9.791,-6.841 12.205,-14.027c2.845,-3.27 1.233,-8.49 -3.597,-11.65l-17.504,-11.452c-17.138,-8.561 -37.47,8.183 -22.513,25.875l17.504,11.452Z"/></clipPath><g clip-path="url(#_clip13)"><path d="M582.4,672.186c3.311,2.166 7.799,1.264 10.015,-2.013l8.031,-11.875c2.217,-3.277 1.328,-7.696 -1.983,-9.863l-18.035,-11.799c-3.311,-2.166 -7.798,-1.264 -10.014,2.013l-8.032,11.875c-2.216,3.277 -1.328,7.696 1.983,9.862l18.035,11.8Z" style="fill:#2c2c2c;"/></g></g><g id="Index"><path d="M620.839,603.487c-2.709,-4.043 -8.44,-5.655 -12.791,-3.596l-15.767,7.461c-4.351,2.059 -5.685,7.014 -2.976,11.057l21.269,31.747c2.709,4.043 8.44,5.654 12.791,3.595l15.767,-7.461c4.351,-2.059 5.685,-7.013 2.976,-11.056l-21.269,-31.747Z" style="fill:#121212;"/><clipPath id="_clip14"><path d="M620.839,603.487c-2.709,-4.043 -8.44,-5.655 -12.791,-3.596l-15.767,7.461c-4.351,2.059 -5.685,7.014 -2.976,11.057l21.269,31.747c2.709,4.043 8.44,5.654 12.791,3.595l15.767,-7.461c4.351,-2.059 5.685,-7.013 2.976,-11.056l-21.269,-31.747Z"/></clipPath><g clip-path="url(#_clip14)"><path d="M644.693,588.765c-2.168,-4.307 -6.764,-5.297 -10.258,-2.208l-12.66,11.192c-3.494,3.088 -4.571,9.093 -2.403,13.401l9.708,19.289c2.168,4.308 6.765,5.298 10.259,2.209l12.66,-11.192c3.494,-3.089 4.57,-9.093 2.402,-13.401l-9.708,-19.29Z" style="fill:#2c2c2c;"/></g><path d="M617.159,655.711c4.509,3.13 10.435,3.209 13.225,0.176c5.236,-2.329 9.487,-6.247 11.969,-13.016c2.79,-3.033 1.394,-8.038 -3.115,-11.169l-16.34,-11.345c-16.068,-8.587 -35.835,6.798 -22.079,24.009l16.34,11.345Z" style="fill:#121212;"/><clipPath id="_clip15"><path d="M617.159,655.711c4.509,3.13 10.435,3.209 13.225,0.176c5.236,-2.329 9.487,-6.247 11.969,-13.016c2.79,-3.033 1.394,-8.038 -3.115,-11.169l-16.34,-11.345c-16.068,-8.587 -35.835,6.798 -22.079,24.009l16.34,11.345Z"/></clipPath><g clip-path="url(#_clip15)"><path d="M603.744,646.189c3.091,2.146 7.381,1.406 9.574,-1.651l7.946,-11.079c2.193,-3.058 1.464,-7.282 -1.627,-9.428l-16.836,-11.689c-3.091,-2.146 -7.381,-1.407 -9.574,1.651l-7.946,11.079c-2.192,3.057 -1.463,7.281 1.628,9.427l16.835,11.69Z" style="fill:#2c2c2c;"/></g></g><g id="Thumb"><path d="M593.332,607.05c3.657,4.181 3.231,10.545 -0.95,14.202l-15.152,13.253c-4.181,3.657 -10.545,3.231 -14.202,-0.95l-16.453,-18.81c-3.657,-4.182 -3.231,-10.546 0.95,-14.203l15.152,-13.252c4.181,-3.657 10.545,-3.232 14.202,0.949l16.453,18.811Z" style="fill:#121212;"/><clipPath id="_clip16"><path d="M593.332,607.05c3.657,4.181 3.231,10.545 -0.95,14.202l-15.152,13.253c-4.181,3.657 -10.545,3.231 -14.202,-0.95l-16.453,-18.81c-3.657,-4.182 -3.231,-10.546 0.95,-14.203l15.152,-13.252c4.181,-3.657 10.545,-3.232 14.202,0.949l16.453,18.811Z"/></clipPath><g clip-path="url(#_clip16)"><path d="M556.32,588.696c-2.967,0.356 -14.016,8.686 -16.079,12.267c-2.063,3.581 -1.992,7.346 -0.281,8.155c1.711,0.809 8.341,4.858 8.341,4.858c7.203,-13.864 16.649,-19.345 26.652,-22.749c-0,-0 -15.666,-2.887 -18.633,-2.531Z" style="fill:#2c2c2c;"/></g><path d="M567.809,619.842c-5.374,-1.406 -8.596,-6.91 -7.19,-12.285l5.093,-19.474c1.406,-5.374 6.911,-8.596 12.285,-7.191l29.787,7.792c5.374,1.405 8.596,6.91 7.19,12.284l-5.094,19.475c-1.406,5.374 -6.91,8.596 -12.284,7.19l-29.787,-7.791Z" style="fill:#121212;"/><clipPath id="_clip17"><path d="M567.809,619.842c-5.374,-1.406 -8.596,-6.91 -7.19,-12.285l5.093,-19.474c1.406,-5.374 6.911,-8.596 12.285,-7.191l29.787,7.792c5.374,1.405 8.596,6.91 7.19,12.284l-5.094,19.475c-1.406,5.374 -6.91,8.596 -12.284,7.19l-29.787,-7.791Z"/></clipPath><g clip-path="url(#_clip17)"><path d="M618.305,620.782c-1.115,4.264 -31.499,-8.248 -30.384,-12.512l2.246,-13.487c1.115,-4.263 10.412,-4.592 15.786,-3.186l15.131,8.283c5.374,1.406 2.377,1.189 1.262,5.453l-4.041,15.449Z" style="fill:#2c2c2c;"/></g></g></g></g><g id="Bicep_Left"><path id="Bicep_Left1" serif:id="Bicep_Left" d="M501.963,414.304c3.524,2.775 38.259,60.337 31.896,84.099c-6.363,23.762 -26.624,41.727 -26.624,41.727l-34.688,-17.938c0,-0 -31.86,-45.6 -29.215,-58.065c2.644,-12.465 8.284,-34.192 18.056,-42.496c9.772,-8.304 37.052,-10.102 40.575,-7.327Z" style="fill:#121212;"/><clipPath id="_clip18"><path d="M501.963,414.304c3.524,2.775 38.259,60.337 31.896,84.099c-6.363,23.762 -26.624,41.727 -26.624,41.727l-34.688,-17.938c0,-0 -31.86,-45.6 -29.215,-58.065c2.644,-12.465 8.284,-34.192 18.056,-42.496c9.772,-8.304 37.052,-10.102 40.575,-7.327Z"/></clipPath><g clip-path="url(#_clip18)"><path d="M514.348,435.666l-12.679,4.154c0,0 6.764,25.483 8.325,31.188c1.562,5.705 5.946,5.322 7.917,9.238c1.97,3.915 5.831,-0.018 5.831,-0.018c0.349,-15.227 -3.493,-30.005 -9.394,-44.562Z" style="fill:#202020;"/><path d="M474.851,455.514l-7.768,1.187c0,-0 9.554,23.797 11.725,29.134c2.171,5.337 5.063,5.855 7.161,9.694c2.099,3.839 3.942,1.124 3.942,1.124c-2.737,-13.363 -8.224,-27.147 -15.06,-41.139Z" style="fill:#202020;"/><path d="M503.221,442.55c3.876,1.963 12.526,32.453 7.986,32.561c-2.01,1.389 -17.831,1.426 -17.831,1.426l-6.222,-16.103c5.119,-7.309 9.309,-14.023 16.067,-17.884Z" style="fill:#202020;"/></g><path id="Joint" d="M486.761,531.169c0,0 18.012,40.122 24.434,37.524c6.421,-2.598 41.903,-18.462 44.445,-25.876c3.915,-11.415 -29.747,-43.027 -31.963,-38.297c-1.134,2.42 -30.011,6.866 -33.746,11.367c-3.735,4.5 -3.17,15.282 -3.17,15.282Z" style="fill:#121212;"/><clipPath id="_clip19"><path d="M486.761,531.169c0,0 18.012,40.122 24.434,37.524c6.421,-2.598 41.903,-18.462 44.445,-25.876c3.915,-11.415 -29.747,-43.027 -31.963,-38.297c-1.134,2.42 -30.011,6.866 -33.746,11.367c-3.735,4.5 -3.17,15.282 -3.17,15.282Z"/></clipPath><g clip-path="url(#_clip19)"><path d="M495.779,546.848c2.501,1.403 8.388,-3.12 12.719,-4.818c4.332,-1.697 16.209,-6.078 17.969,-7.356c1.76,-1.279 5.161,-5.867 2.711,-7.788c-2.451,-1.921 -17.632,-3.612 -22.469,-0.373c-10.387,6.956 -13.432,18.932 -10.93,20.335Z" style="fill:#202020;"/></g></g><g id="Shoulder_Left"><path d="M477.992,344.293c24.802,-4.969 46.584,12.217 48.612,38.355c2.028,26.137 -16.462,51.391 -41.264,56.36c-24.802,4.969 -46.585,-12.217 -48.612,-38.354c-2.028,-26.138 16.462,-51.392 41.264,-56.361Z" style="fill:#121212;"/><path d="M465.061,390.933c-0,-0 13.186,-23.575 16.932,-27.392c3.745,-3.817 14.945,-17.699 25.449,-21.031c9.978,-3.166 38.461,7.95 43.446,32.688c0.263,1.304 -3.548,2.953 -3.463,4.33c1.694,27.497 -2.192,49.317 -2.192,49.317l-22.621,5.767l-18.419,-17.628c-23.15,4.146 -36.353,-4.335 -39.132,-26.051Z" style="fill:#fff;"/><clipPath id="_clip20"><path d="M465.061,390.933c-0,-0 13.186,-23.575 16.932,-27.392c3.745,-3.817 14.945,-17.699 25.449,-21.031c9.978,-3.166 38.461,7.95 43.446,32.688c0.263,1.304 -3.548,2.953 -3.463,4.33c1.694,27.497 -2.192,49.317 -2.192,49.317l-22.621,5.767l-18.419,-17.628c-23.15,4.146 -36.353,-4.335 -39.132,-26.051Z"/></clipPath><g clip-path="url(#_clip20)"><path d="M532.436,328.534c-2.406,3.278 -5.416,9.755 -1.143,11.122c4.273,1.368 8.208,2.372 8.208,2.372c-0,0 -1.676,1.115 -1.607,5.14c0.068,4.025 21.861,8.957 23.326,16.245c1.465,7.287 -14.338,47.312 -17.224,49.48c-2.886,2.168 -3.537,5.01 -4.521,6.369c-0.985,1.359 -5.618,3.564 -8.741,3.687c-3.123,0.123 -3.382,-1.792 -3.378,-4.753c0.004,-2.961 -13.432,-16.258 -20.413,-17.473c-1.591,-0.278 50.206,-33.199 48.362,-33.358c-12.413,-1.069 -73.002,34.45 -67.073,37.818c2.256,1.282 -19.197,-26.832 -21.031,-25.449c-21.46,16.17 2.895,59.515 26.953,50.065c5.892,-2.314 32.703,12.045 36.055,12.248c3.353,0.203 64.806,-29.648 63.405,-36.012c-1.402,-6.365 -23.894,-62.339 -23.894,-62.339c0,-0 -34.879,-18.439 -37.284,-15.162Z" style="fill:#e3eff3;fill-opacity:0.21;"/><path d="M513.282,353.09c-0,-0 12.204,-1.928 18.719,8.577c6.516,10.506 -1.831,15.187 -1.831,15.187c-8.636,-3.938 -14.388,-12.718 -18.882,-23.61" style="fill:#e3eff3;"/><path d="M538.832,386.785c0,0 3.909,0.219 4.905,5.193c0.997,4.974 -1.994,6.24 -1.994,6.24c-2.265,-2.388 -3.191,-6.571 -3.534,-11.536" style="fill:#e3eff3;"/><path d="M559.922,372.54c-5.635,-3.465 -66.645,27.947 -76.821,44.074" style="fill:none;stroke:#b6d6e0;stroke-width:8.33px;stroke-linejoin:round;stroke-miterlimit:1.5;"/></g><path d="M479.844,361.702c-0,-0 -18.094,23.504 -14.01,39.201c6.192,23.803 39.897,22.983 39.897,22.983" style="fill:none;stroke:#fd6785;stroke-width:8.33px;stroke-linejoin:round;stroke-miterlimit:1.5;"/></g></g><g id="Neck"><path d="M351.791,327.576l65,15l10,37l-74,7c-8.178,-33 -11.404,-26 -1,-59Z" style="fill:#121212;"/><path d="M360.791,364.576l26,14l-12,6l-17,-15l3,-5Z" style="fill:#2c2c2c;"/><path d="M364.791,356.576c0,0 -0.636,-17.898 -4,-18c-3.364,-0.101 -12,4 -12,4c0,0 -2.22,19.642 1,20c3.22,0.359 15,-6 15,-6Z" style="fill:#2c2c2c;"/><path d="M375.791,347.576c0,0 15.279,16.318 14,20c-1.279,3.682 -1.115,5.677 -4,4c-2.884,-1.677 -7,-3 -7,-3l-3,-21Z" style="fill:#404242;"/></g><g id="Leg_Left"><path id="Thigh_Left" d="M564.791,700.576c-5.265,11.106 -34.085,11.651 -46,12c-11.915,0.35 -51.167,10.667 -62,7c-9.205,-3.115 -3,-29 -3,-29c0,0 -3.024,-25.924 -10,-42c-6.976,-16.075 -21.539,-46.91 -24,-63c-2.46,-16.089 54.181,-58.821 63,-59c8.819,-0.178 23.991,0.524 28,9c4.01,8.477 60.072,134.085 60,141c-0.072,6.916 -10,24 -10,24" style="fill:#121212;"/><clipPath id="_clip21"><path d="M564.791,700.576c-5.265,11.106 -34.085,11.651 -46,12c-11.915,0.35 -51.167,10.667 -62,7c-9.205,-3.115 -3,-29 -3,-29c0,0 -3.024,-25.924 -10,-42c-6.976,-16.075 -21.539,-46.91 -24,-63c-2.46,-16.089 54.181,-58.821 63,-59c8.819,-0.178 23.991,0.524 28,9c4.01,8.477 60.072,134.085 60,141c-0.072,6.916 -10,24 -10,24"/></clipPath><g clip-path="url(#_clip21)"><path d="M446.791,593.576c-2.527,3.01 -1.449,21.251 3,22c4.449,0.75 11.853,-1.589 9,-7c-2.853,-5.41 -9.473,-18.009 -12,-15Z" style="fill:#2c2c2c;"/><path d="M467.791,594.576c-6,-7.166 -8.449,32.633 -11,36c-2.551,3.367 -7,4 -7,4c0,0 0.122,9.808 6,10c5.878,0.192 8,-7 8,-7c0,0 15.689,30.668 14,34c-1.688,3.333 14.496,7.036 15,2c0.504,-5.035 -19,-71.833 -25,-79Z" style="fill:#2c2c2c;"/><path d="M490.791,521.576c-4.624,3.543 -33.395,34.496 -32,36c1.396,1.504 21.945,-9.901 25,-16c3.055,-6.098 11.624,-23.543 7,-20Z" style="fill:#2c2c2c;"/></g><g id="Calf_Left"><path d="M556.791,654.576c0,0 29.491,58.003 28,71c-1.491,12.997 -36,97 -36,97l-71,11l0,-23c0,0 -16.413,-55.878 -18,-68c-1.586,-12.122 33,-72 33,-72l64,-16Z" style="fill:#121212;"/><g id="Wheel"><path d="M512.291,693.576c-11.314,-2.207 -20.5,12.804 -20.5,33.5c0,20.697 9.186,39.293 20.5,41.5c11.314,2.208 20.5,-12.803 20.5,-33.5c0,-20.696 -9.186,-39.292 -20.5,-41.5Z" style="fill:#31b5dd;"/><path d="M516.291,713.43c-5.243,-1.023 -9.5,6.053 -9.5,15.793c0,9.739 4.257,18.477 9.5,19.5c5.243,1.023 9.5,-6.054 9.5,-15.793c0,-9.739 -4.257,-18.477 -9.5,-19.5Z" style="fill:#d44c77;"/><path id="Front" d="M556.791,673.576c0,0 -11.539,1.81 -14,6c-2.461,4.19 -2.397,22.225 -1,34c8.255,10.998 -2.309,71.263 -26,63c-1.94,-0.889 3.461,7.994 14,6c10.539,-1.993 22.53,-4.405 30,-18c7.47,-13.594 23.408,-26.961 19,-56c-4.408,-29.038 -22,-35 -22,-35Z" style="fill:#fff;"/><clipPath id="_clip22"><path d="M556.791,673.576c0,0 -11.539,1.81 -14,6c-2.461,4.19 -2.397,22.225 -1,34c8.255,10.998 -2.309,71.263 -26,63c-1.94,-0.889 3.461,7.994 14,6c10.539,-1.993 22.53,-4.405 30,-18c7.47,-13.594 23.408,-26.961 19,-56c-4.408,-29.038 -22,-35 -22,-35Z"/></clipPath><g clip-path="url(#_clip22)"><path d="M583.791,730.576c0,0 -10.363,2.081 -12,-2c-1.637,-4.08 -8.348,-5.919 -10,-5c-1.652,0.92 -13.436,9.071 -15,8c-1.564,-1.071 -12,-2 -12,-2c0,0 -23.715,37.009 -24,39c-0.285,1.992 0.498,33.96 3,34c2.502,0.041 53.192,-5.555 55,-16c1.809,-10.444 15,-56 15,-56Z" style="fill:#b6d6e0;"/><path d="M577.791,683.576c0,0 -4.561,19.099 -14,24c-9.439,4.902 -15.433,7.328 -18,4c-2.567,-3.327 -10.304,-8.434 -12,-11c-1.696,-2.565 2.314,-0.522 16,-9c13.686,-8.477 25.634,-16.832 24,-20c-1.633,-3.167 -7.871,-10.162 -21,-8c-13.128,2.162 -31.06,2.259 -33,10c-1.94,7.742 13.235,84.141 18,84c4.765,-0.14 54.035,-4.493 58,-13c3.965,-8.506 10.481,-45.641 7,-51c-3.48,-5.358 -25,-10 -25,-10Z" style="fill:#e3eff3;"/></g></g><path id="CalfPiece" d="M479.791,686.576c-6.763,1.43 -19.942,42.425 -23,51c-3.058,8.576 2.06,40.87 6,46c3.94,5.131 36.89,43.121 47,36c5.399,-33.508 9.203,-67.066 7,-102c0,0 -23.35,-33.886 -37,-31Z" style="fill:#fff;"/><clipPath id="_clip23"><path d="M479.791,686.576c-6.763,1.43 -19.942,42.425 -23,51c-3.058,8.576 2.06,40.87 6,46c3.94,5.131 36.89,43.121 47,36c5.399,-33.508 9.203,-67.066 7,-102c0,0 -23.35,-33.886 -37,-31Z"/></clipPath><g clip-path="url(#_clip23)"><path d="M533.791,709.576c-3.474,1.685 -23.376,21.156 -26,27c-2.624,5.844 -6.925,23.662 -7,31c-0.075,7.339 1.286,17.797 4,31c2.715,13.204 16,-56 16,-56l14,79c0,0 -62.743,11.932 -71,3c-8.256,-8.931 -26.828,-125.992 -26,-128c0.829,-2.008 70,-15 70,-15c0,0 29.474,26.316 26,28Z" style="fill:#b6d6e0;"/><path d="M443.791,748.576c2.263,0.321 21.207,3.999 25,14c3.793,10.002 17.003,43.895 12,46c-5.002,2.106 -33.701,-20.701 -36,-32c-2.298,-11.298 -3.263,-28.32 -1,-28Z" style="fill:#e3eff3;"/><path d="M514.791,708.576c-2.148,0.704 -5.84,11.718 -9,11c-3.159,-0.717 -12.14,-25.3 -15,-26c-2.859,-0.699 -9,0 -9,0c0,0 12.172,37.934 18,39c9.728,1.781 18.209,-25.05 15,-24Z" style="fill:#e3eff3;"/></g><path d="M542.791,793.576c0,0 -1.256,-7.308 -2,-7c-0.743,0.309 -21.504,0.581 -21,6c0.505,5.42 2,8 2,8c6.645,-5.291 13.595,-8.039 21,-7Z" style="fill:#2c2c2c;"/></g><path id="ThighPiece_Left" d="M504.791,521.576c-4.917,-1.877 -30.868,29.072 -32,38c-1.132,8.929 -1,16 -1,16c0,0 -0.151,-5.328 -2,0c-1.848,5.329 14.997,92.54 26,103l-20,32c0,0 17.737,23.036 26,18c8.263,-5.035 11.707,-11.357 18,-12c6.293,-0.642 17.753,-39.442 18,-43l26,-13c0,0 2.139,8.755 3,11c0.861,2.246 10.468,23.777 13,16c0,0 1.242,-16.097 0,-24c-1.772,-11.279 -10.315,-40.416 -34.634,-78.678c-1.413,-2.223 -3.458,0.353 -4.692,-1.938c-1.16,-2.153 -0.321,-6.283 -1.48,-8.383c-13.662,-24.748 -27.059,-50.276 -34.194,-53.001Z" style="fill:#fff;"/><clipPath id="_clip24"><path d="M504.791,521.576c-4.917,-1.877 -30.868,29.072 -32,38c-1.132,8.929 -1,16 -1,16c0,0 -0.151,-5.328 -2,0c-1.848,5.329 14.997,92.54 26,103l-20,32c0,0 17.737,23.036 26,18c8.263,-5.035 11.707,-11.357 18,-12c6.293,-0.642 17.753,-39.442 18,-43l26,-13c0,0 2.139,8.755 3,11c0.861,2.246 10.468,23.777 13,16c0,0 1.242,-16.097 0,-24c-1.772,-11.279 -10.315,-40.416 -34.634,-78.678c-1.413,-2.223 -3.458,0.353 -4.692,-1.938c-1.16,-2.153 -0.321,-6.283 -1.48,-8.383c-13.662,-24.748 -27.059,-50.276 -34.194,-53.001Z"/></clipPath><g clip-path="url(#_clip24)"><path d="M480.791,581.576c0,0 1.621,9.168 2,14c0.379,4.833 3.274,4.953 4,10c0.726,5.048 0.188,8.259 1,11c0.813,2.742 24,-6 24,-6c0,0 3.453,2.345 1,5c-2.452,2.655 -4.461,14.348 -4,16c0.461,1.653 5.019,6.783 6,4c0.982,-2.782 9,-3 9,-3c0,0 12.72,-4.088 18,-4c5.28,0.088 10,4 10,4l7,0l7,2l10,2l17,42l-20,24l-81,46c0,0 -41.95,-51.512 -43,-58c-1.049,-6.487 2,-80 2,-80l30,-29Z" style="fill:#e3eff3;"/><path d="M510.791,539.576c-7.638,6.755 -34.451,56.988 -36,59c-1.549,2.012 -6.585,-21.099 -7,-26c-0.414,-4.9 34.249,-55.282 39,-54c4.751,1.283 28.906,18.637 29,25c0.095,6.364 2.427,45.209 -1,43c-3.426,-2.208 -16.361,-53.754 -24,-47Z" style="fill:#e3eff3;"/><path d="M495.791,520.576c-0.015,5.499 9.361,3.812 0,19c-9.361,15.189 -12.599,26.684 -20,28c-7.401,1.317 -14.904,-10.885 -13,-15c1.904,-4.114 33.015,-37.498 33,-32Z" style="fill:#b6d6e0;"/><path d="M468.791,572.576c0,0 15.841,33.871 20,49c4.16,15.13 19.495,40.399 19,47c-0.495,6.601 -4,14 -4,14c0,0 14.671,20.623 13,24c-1.671,3.377 -11,12 -11,12c0,0 -7.508,-23.337 -13,-25c-5.491,-1.663 -13,-7 -13,-7l-23,-112l12,-2Z" style="fill:#b6d6e0;"/><path d="M567.791,679.576c2.537,-0.052 9.508,0.703 7,-5c-2.507,-5.702 -6,-22 -6,-22l-36,12c0,0 -2.588,-3.56 -6,-3c-3.411,0.56 -5,2 -5,2l5,15c0,0 -6.806,13.23 -5,16c1.806,2.771 1.283,8.187 6,7c4.718,-1.186 37.464,-21.948 40,-22Z" style="fill:#b6d6e0;"/><path d="M481.791,618.576c2.9,-2.083 10.278,-4.699 18,-6c7.722,-1.3 31.065,-13.746 32,-16c0.935,-2.253 10.154,-13.834 10,-10c-0.154,3.835 -11.723,19.084 -13,21c-1.277,1.917 -20.941,9.563 -26,10c-5.059,0.438 -21,7 -21,7c0,0 -2.9,-3.916 0,-6Z" style="fill:#b6d6e0;"/><path d="M540.791,574.576c-4.371,4.568 8.804,-3.481 -7,20l16,-12l-9,-8Z" style="fill:#202020;"/><g id="LOGO1" serif:id="LOGO"><path d="M531.396,580.933l-13.876,2.67l4.394,12.324l13.875,-2.669l-4.393,-12.325Z" style="fill:#2c2c2c;"/><path d="M540.51,606.502l-13.875,2.67l4.393,12.324l13.875,-2.67l-4.393,-12.324Z" style="fill:#2c2c2c;"/><path d="M513.723,611.656c-17.694,0.639 -27.711,-11.481 -30.557,-21.871c-6.764,-24.691 20.163,-41.614 39.467,-32.778l3.081,16.197c-11.463,-3.282 -29.097,0.834 -25.628,15.21c1.595,6.607 6.594,9.077 12.86,9.239l8.968,-1.726l4.721,13.245l-12.912,2.484Z" style="fill:#2c2c2c;"/><path d="M535.789,593.258l4.721,13.244l12.911,-2.485l-4.721,-13.244l-12.911,2.485Z" style="fill:#2c2c2c;"/></g></g><g id="Foot_Left"><path d="M590.791,863.576c0,0 -14.498,-62.433 -30,-67c-15.501,-4.566 -52,27 -52,27l-37,3l-9,6c0,0 -0.195,25.276 0,28c0.195,2.725 -5.166,15.411 -4,23c1.167,7.59 26.666,12.643 30,12c3.334,-0.642 14,-7 14,-7l8,12c0,0 40.38,11.592 52,11c19.988,-1.016 49.475,-11.067 50,-17c1.274,-14.405 -12.938,-33.384 -22,-31Z" style="fill:#121212;"/><clipPath id="_clip25"><path d="M590.791,863.576c0,0 -14.498,-62.433 -30,-67c-15.501,-4.566 -52,27 -52,27l-37,3l-9,6c0,0 -0.195,25.276 0,28c0.195,2.725 -5.166,15.411 -4,23c1.167,7.59 26.666,12.643 30,12c3.334,-0.642 14,-7 14,-7l8,12c0,0 40.38,11.592 52,11c19.988,-1.016 49.475,-11.067 50,-17c1.274,-14.405 -12.938,-33.384 -22,-31Z"/></clipPath><g clip-path="url(#_clip25)"><path d="M506.791,809.576l2,25l-12,-3l-5,36l-13,-7l5,-27l6,-7l3,-12l14,-5Z" style="fill:#2c2c2c;"/><path d="M519.791,853.576l11,23l-9,18c0,0 -2.816,1.983 -5,-2c-2.184,-3.982 -7.004,-20.291 -7,-21c0.004,-0.709 -0.257,-7.389 0,-10c0.258,-2.611 10,-8 10,-8Z" style="fill:#2c2c2c;"/><path d="M527.791,905.576l17,-2l9,10c-7.741,-0.506 -16.233,-2.766 -26,-8Z" style="fill:#2c2c2c;"/><path d="M589.791,864.576l-18,7c0,0 -2.01,6.477 1,8c3.01,1.524 8,1 8,1l16,-11l-7,-5Z" style="fill:#2c2c2c;"/><path d="M500.791,842.576l-15,-12l-1,22l15,39l8,3l-3,-16c0,0 -6.302,-6.201 -6,-7c0.302,-0.798 2,-29 2,-29Z" style="fill:#31b5dd;"/></g><path d="M467.791,844.576c1.904,-0.173 3.761,0.98 4,3c0.239,2.02 0,16 0,16c0,0 18.324,11.853 19,16c0.677,4.147 -0.225,9.034 -2,8c-1.775,-1.033 -21.82,-0.87 -23,-8c-1.18,-7.129 -1,-34 -1,-34c0,0 1.096,-0.826 3,-1Z" style="fill:#fff;"/><path d="M603.791,869.576c0,0 -31.167,11.64 -39,12.328c-4.593,0.404 -9.839,-3.07 -12,-4.82l-14,0l-6,-3.442l-6,6.885c0,-0 9.754,11.62 18,14.459c8.333,2.868 23.167,3.672 29,2.754c4.225,-0.665 6,-6.197 6,-6.197c0,0 29.333,-3.098 33,-6.196c3.667,-3.099 -9,-15.771 -9,-15.771Z" style="fill:#fff;"/><clipPath id="_clip26"><path d="M603.791,869.576c0,0 -31.167,11.64 -39,12.328c-4.593,0.404 -9.839,-3.07 -12,-4.82l-14,0l-6,-3.442l-6,6.885c0,-0 9.754,11.62 18,14.459c8.333,2.868 23.167,3.672 29,2.754c4.225,-0.665 6,-6.197 6,-6.197c0,0 29.333,-3.098 33,-6.196c3.667,-3.099 -9,-15.771 -9,-15.771Z"/></clipPath><g clip-path="url(#_clip26)"><path d="M550.791,874.33l19,17.213l12,-6.885l22,-4.131l8,-8.951l5,14.459l-63,15.836c0,-0 -46.253,-7.808 -47,-10.328c-0.747,-2.52 18,-22.721 18,-22.721l26,5.508Z" style="fill:#e3eff3;"/><path d="M546.791,874.33l4,7.574l-12,-1.377l2,4.131l11,12.393c0,0 -35.133,-9.731 -36,-11.016c-0.866,-1.285 8,-14.459 8,-14.459l23,2.066l0,0.688Z" style="fill:#b6d6e0;"/></g><path id="FootPiece" d="M562.627,780.576c-0,0 28.607,37.656 27.94,47.058c-0.668,9.403 -3.224,10.23 -3.224,10.23c-0,0 6.725,1.343 6.448,5.115c-0.278,3.772 -5.374,7.161 -5.374,7.161c0,0 -36.311,15.526 -37.611,18.414c-1.301,2.889 -5.004,-1.335 -6.448,-3.069c-1.443,-1.733 -22.567,-30.69 -22.567,-30.69l7.522,-43.989l33.314,-10.23Z" style="fill:#fff;"/><clipPath id="_clip27"><path d="M562.627,780.576c-0,0 28.607,37.656 27.94,47.058c-0.668,9.403 -3.224,10.23 -3.224,10.23c-0,0 6.725,1.343 6.448,5.115c-0.278,3.772 -5.374,7.161 -5.374,7.161c0,0 -36.311,15.526 -37.611,18.414c-1.301,2.889 -5.004,-1.335 -6.448,-3.069c-1.443,-1.733 -22.567,-30.69 -22.567,-30.69l7.522,-43.989l33.314,-10.23Z"/></clipPath><g clip-path="url(#_clip27)"><path d="M515.343,807.174c6.737,3.148 38.109,38.238 38.687,41.943c0.578,3.706 17.695,-8.942 29.014,-8.184c11.32,0.759 19.903,5.491 18.269,8.184c-1.634,2.694 -47.267,39.412 -59.104,37.851c-11.838,-1.561 -33.602,-82.941 -26.866,-79.794Z" style="fill:#e3eff3;"/></g></g></g><g id="Leg_Right"><path id="Thigh_Right" d="M365.135,721.086c-9.143,8.214 -35.941,-2.407 -47.067,-6.683c-11.127,-4.276 -51.319,-9.908 -59.898,-17.472c-7.289,-6.427 8.425,-27.91 8.425,-27.91c0,-0 7.216,-25.083 6.985,-42.606c-0.231,-17.522 -1.766,-51.589 2.174,-67.381c3.94,-15.793 50.611,-35 58.816,-31.761c8.205,3.239 21.929,9.742 22.357,19.109c0.427,9.367 25.742,148.527 23.006,154.88c-2.735,6.352 -18.488,18.281 -18.488,18.281" style="fill:#121212;"/><clipPath id="_clip28"><path d="M365.135,721.086c-9.143,8.214 -35.941,-2.407 -47.067,-6.683c-11.127,-4.276 -51.319,-9.908 -59.898,-17.472c-7.289,-6.427 8.425,-27.91 8.425,-27.91c0,-0 7.216,-25.083 6.985,-42.606c-0.231,-17.522 -1.766,-51.589 2.174,-67.381c3.94,-15.793 50.611,-35 58.816,-31.761c8.205,3.239 21.929,9.742 22.357,19.109c0.427,9.367 25.742,148.527 23.006,154.88c-2.735,6.352 -18.488,18.281 -18.488,18.281"/></clipPath><g clip-path="url(#_clip28)"><path d="M297.575,576.835c-3.493,1.801 -9.539,19.044 -5.724,21.453c3.815,2.408 11.549,3.108 11.005,-2.984c-0.544,-6.092 -1.788,-20.271 -5.281,-18.469Z" style="fill:#2c2c2c;"/><path d="M316.562,585.862c-2.769,-8.927 -20.389,26.844 -24.042,28.965c-3.653,2.122 -8.002,0.989 -8.002,0.989c0,-0 -3.672,9.095 1.676,11.541c5.348,2.445 10.082,-3.37 10.082,-3.37c-0,-0 2.637,34.346 -0.207,36.768c-2.844,2.423 10.657,12.085 13.066,7.635c2.408,-4.451 10.196,-73.601 7.427,-82.528Z" style="fill:#2c2c2c;"/><path d="M365.954,527.395c-5.633,1.484 -44.122,18.934 -43.415,20.86c0.707,1.926 24.066,-0.664 29.238,-5.111c5.173,-4.448 19.811,-17.233 14.177,-15.749Z" style="fill:#2c2c2c;"/></g><g id="Calf_Right"><path d="M373.602,690.745c0,-0 3.978,62.885 -1.508,74.733c-5.487,11.847 -51.314,85.006 -51.314,85.006l-59.557,-9.286l7.631,-21.697c0,0 -10.896,-60.115 -8.124,-71.99c2.773,-11.874 57.169,-59.397 57.169,-59.397l55.703,2.631Z" style="fill:#121212;"/><g id="Wheel1" serif:id="Wheel"><path d="M328.158,698.902c-4.378,-3.743 -13.969,9.103 -21.405,28.668c-7.436,19.565 -9.919,38.488 -5.541,42.23c4.378,3.743 13.969,-9.103 21.405,-28.668c7.436,-19.565 9.919,-38.488 5.541,-42.23Z" style="fill:#31b5dd;"/><path d="M322.853,718.255c-2.029,-1.734 -6.516,4.332 -10.016,13.539c-3.499,9.206 -4.693,18.089 -2.664,19.824c2.029,1.734 6.517,-4.332 10.016,-13.539c3.499,-9.207 4.693,-18.09 2.664,-19.824Z" style="fill:#d44c77;"/><path id="Front1" serif:id="Front" d="M354.74,689.653c0,0 -11.635,-1.65 -14.562,1.667c-2.927,3.317 -8.112,20.128 -10.404,34.503c-2.522,15.819 -17.956,58.062 -28.268,54.118c-1.691,-0.647 2.155,6.729 10.139,7.909c7.984,1.179 18.109,3.383 27.243,-7.532c9.135,-10.915 16.163,-21.117 21.346,-50.427c5.183,-29.309 -5.494,-40.238 -5.494,-40.238Z" style="fill:#fff;"/><clipPath id="_clip29"><path d="M354.74,689.653c0,0 -11.635,-1.65 -14.562,1.667c-2.927,3.317 -8.112,20.128 -10.404,34.503c-2.522,15.819 -17.956,58.062 -28.268,54.118c-1.691,-0.647 2.155,6.729 10.139,7.909c7.984,1.179 18.109,3.383 27.243,-7.532c9.135,-10.915 16.163,-21.117 21.346,-50.427c5.183,-29.309 -5.494,-40.238 -5.494,-40.238Z"/></clipPath><g clip-path="url(#_clip29)"><path d="M357.475,752.585c0,-0 -7.885,-1.044 -7.872,-5.462c0.012,-4.417 -4.185,-8.167 -5.61,-7.766c-1.425,0.4 -12.041,4.795 -12.836,3.301c-0.795,-1.493 -7.873,-5.462 -7.873,-5.462c0,0 -27.245,28.719 -28.013,30.556c-0.769,1.837 -9.339,32.905 -7.59,33.681c1.749,0.775 39.011,10.298 43.263,0.756c4.253,-9.543 26.531,-49.604 26.531,-49.604Z" style="fill:#b6d6e0;"/><path d="M366.663,705.481c-0,0 -8.658,17.081 -16.698,19.03c-8.039,1.949 -12.949,2.526 -13.806,-1.44c-0.857,-3.965 -4.844,-11.169 -5.305,-14.143c-0.461,-2.974 1.777,0.177 13.826,-3.972c12.048,-4.149 22.838,-8.692 22.592,-12.228c-0.246,-3.536 -2.639,-12.119 -12.493,-13.898c-9.854,-1.779 -22.498,-6.965 -26.072,-0.068c-3.574,6.897 -14.693,85.06 -11.301,86.327c3.393,1.267 39.302,11.572 44.518,4.533c5.217,-7.039 20.396,-40.942 19.476,-47.135c-0.92,-6.194 -14.737,-17.006 -14.737,-17.006Z" style="fill:#e3eff3;"/></g></g><path id="CalfPiece1" serif:id="CalfPiece" d="M304.61,672.744c-5.759,-0.859 -31.73,32.713 -37.394,39.639c-5.665,6.926 -14.188,38.367 -13.134,44.369c1.054,6.002 11.765,51.663 22.298,48.352c17.089,-29.173 32.971,-58.905 44.757,-91.842c-0,0 -4.902,-38.783 -16.527,-40.518Z" style="fill:#fff;"/><clipPath id="_clip30"><path d="M304.61,672.744c-5.759,-0.859 -31.73,32.713 -37.394,39.639c-5.665,6.926 -14.188,38.367 -13.134,44.369c1.054,6.002 11.765,51.663 22.298,48.352c17.089,-29.173 32.971,-58.905 44.757,-91.842c-0,0 -4.902,-38.783 -16.527,-40.518Z"/></clipPath><g clip-path="url(#_clip30)"><path d="M337.315,711.359c-3.325,0.435 -26.166,11.986 -30.442,16.532c-4.276,4.545 -14.464,19.597 -17.354,26.343c-2.891,6.745 -5.879,16.832 -8.885,29.886c-3.005,13.055 33.934,-46.506 33.934,-46.506l-19.709,77.389c-0,-0 -52.92,-9.206 -55.831,-20.106c-2.91,-10.899 27.968,-124.873 29.381,-126.458c1.413,-1.586 59.692,8.713 59.692,8.713c-0,-0 12.539,33.772 9.214,34.207Z" style="fill:#b6d6e0;"/><path d="M252.96,718.343c1.618,1.025 14.787,10.52 13.847,20.969c-0.939,10.449 -3.848,45.971 -8.513,46.302c-4.665,0.33 -17.962,-29.955 -15.371,-41.119c2.591,-11.163 8.418,-27.177 10.037,-26.152Z" style="fill:#e3eff3;"/><path d="M323.07,704.315c-1.925,-0.043 -9.02,8.928 -11.175,7.248c-2.156,-1.68 0.416,-27.251 -1.516,-28.817c-1.932,-1.567 -6.931,-2.9 -6.931,-2.9c0,0 -5.267,38.916 -1.191,41.777c6.804,4.777 23.69,-17.244 20.813,-17.308Z" style="fill:#e3eff3;"/></g><path d="M315.359,801.073c0,-0 1.853,-7.148 1.162,-7.102c-0.692,0.045 -16.784,-6.393 -18.487,-1.231c-1.703,5.162 -1.547,8.025 -1.547,8.025c7.159,-2.741 13.571,-3.037 18.872,0.308Z" style="fill:#2c2c2c;"/></g><path id="ThighPiece_Right" d="M355.486,531.688c-3.811,-3.631 -39.696,14.905 -44.186,22.705c-4.491,7.8 -7.098,14.374 -7.098,14.374c-0,0 1.917,-4.974 -1.845,-0.772c-3.762,4.202 -21.881,91.158 -15.768,105.054l-16.944,14.591c0,0 7.472,28.096 17.038,26.64c9.567,-1.456 15.184,-5.959 21.237,-4.123c6.053,1.836 17.744,-22.323 19.345,-25.51l37.456,3.746c0,0 4.647,25.526 4.575,27.93c-0.072,2.404 0.48,25.975 5.818,19.778c-0,-0 7.358,-14.371 9.262,-22.141c2.719,-11.09 -8.423,-63.595 -16.091,-108.278c-0.445,-2.596 -3.326,-1.009 -3.58,-3.599c-0.239,-2.433 2.129,-5.919 1.87,-8.304c-3.052,-28.104 -5.558,-56.824 -11.089,-62.091Z" style="fill:#fff;"/><clipPath id="_clip31"><path d="M355.486,531.688c-3.811,-3.631 -39.696,14.905 -44.186,22.705c-4.491,7.8 -7.098,14.374 -7.098,14.374c-0,0 1.917,-4.974 -1.845,-0.772c-3.762,4.202 -21.881,91.158 -15.768,105.054l-16.944,14.591c0,0 7.472,28.096 17.038,26.64c9.567,-1.456 15.184,-5.959 21.237,-4.123c6.053,1.836 17.744,-22.323 19.345,-25.51l37.456,3.746c0,0 4.647,25.526 4.575,27.93c-0.072,2.404 0.48,25.975 5.818,19.778c-0,-0 7.358,-14.371 9.262,-22.141c2.719,-11.09 -8.423,-63.595 -16.091,-108.278c-0.445,-2.596 -3.326,-1.009 -3.58,-3.599c-0.239,-2.433 2.129,-5.919 1.87,-8.304c-3.052,-28.104 -5.558,-56.824 -11.089,-62.091Z"/></clipPath><g clip-path="url(#_clip31)"><path d="M310.189,577.776c-0,-0 -2.043,9.083 -3.558,13.687c-1.516,4.604 1.109,5.832 -0.17,10.769c-1.279,4.937 -3.014,7.691 -3.323,10.534c-0.308,2.843 24.456,3.727 24.456,3.727c0,0 2.28,3.496 -1.007,4.999c-3.287,1.503 -9.653,11.514 -9.865,13.216c-0.213,1.703 2.012,8.194 3.991,6.006c1.979,-2.188 9.461,0.706 9.461,0.706c-0,0 13.312,1.138 18.149,3.257c4.837,2.119 7.681,7.55 7.681,7.55l6.458,2.702l5.686,4.546l8.453,5.705l-0.527,45.307l-27.714,14.421l-92.477,11.174c-0,0 -18.819,-63.712 -17.283,-70.102c1.535,-6.39 32.721,-73.03 32.721,-73.03l38.868,-15.174Z" style="fill:#e3eff3;"/><path d="M354.074,550.609c-9.653,3.283 -53.776,39.276 -55.981,40.534c-2.206,1.258 2.068,-22.006 3.577,-26.687c1.509,-4.681 52.931,-37.781 56.819,-34.764c3.888,3.016 19.473,28.349 17.104,34.255c-2.368,5.907 -15.209,42.642 -17.518,39.283c-2.309,-3.36 5.653,-55.905 -4.001,-52.621Z" style="fill:#e3eff3;"/><path d="M347.57,527.291c-2.136,5.067 7.164,7.129 -7.333,17.528c-14.498,10.399 -21.922,19.754 -29.257,18.112c-7.336,-1.642 -9.548,-15.794 -6.204,-18.855c3.344,-3.061 44.929,-21.851 42.794,-16.785Z" style="fill:#b6d6e0;"/><path d="M302.592,564.842c0,-0 1.541,37.359 -0.461,52.922c-2.002,15.563 2.393,44.793 -0.612,50.692c-3.005,5.898 -9.093,11.371 -9.093,11.371c-0,0 5.574,24.687 2.73,27.158c-2.845,2.471 -14.78,6.825 -14.78,6.825c0,-0 2.081,-24.427 -2.343,-28.081c-4.425,-3.653 -9.292,-11.475 -9.292,-11.475l22.009,-112.199l11.842,2.787Z" style="fill:#b6d6e0;"/><path d="M352.625,701.76c2.36,0.931 8.5,4.318 8.387,-1.91c-0.112,-6.229 2.956,-22.612 2.956,-22.612l-37.842,-2.824c-0,0 -1.014,-4.283 -4.377,-5.083c-3.364,-0.8 -5.385,-0.085 -5.385,-0.085l-1.177,15.768c0,-0 -11.384,9.577 -10.787,12.831c0.596,3.253 -1.977,8.047 2.833,8.773c4.81,0.726 43.032,-5.788 45.392,-4.858Z" style="fill:#b6d6e0;"/><path d="M296.831,612.295c3.48,-0.803 11.296,-0.369 18.921,1.412c7.626,1.781 33.964,-0.692 35.696,-2.41c1.732,-1.718 14.706,-8.843 13.085,-5.366c-1.622,3.478 -18.18,13.081 -20.098,14.356c-1.918,1.275 -23.009,0.739 -27.845,-0.81c-4.836,-1.548 -22.075,-1.647 -22.075,-1.647c0,0 -1.164,-4.732 2.316,-5.535Z" style="fill:#b6d6e0;"/><path d="M368.242,594.475c-5.795,2.527 9.465,0.186 -14.177,15.749l19.392,-4.895l-5.215,-10.854Z" style="fill:#202020;"/></g><g id="Foot_Right"><path d="M358.595,902.188c0,-0 -1.632,-19.112 -7.891,-20.686c-19.026,-4.785 6.658,-59.175 -4.073,-65.248c-14.065,-7.958 -56.764,14.522 -56.764,14.522l-17.985,-2.128l-10.125,3.806c0,-0 -5.914,24.575 -6.341,27.272c-0.427,2.698 -5.687,42.376 -6.27,50.032c2.594,3.054 8.137,1.573 13.77,4.846c-1.896,6.043 3.663,13.282 3.663,13.282c-0,0 25.047,20.26 36.499,22.316c19.699,3.536 35.842,-0.382 41.719,-1.348c8.254,-1.358 13.392,-1.836 13.97,-3.827c3.648,-12.561 7.84,-43.07 -0.172,-42.839Z" style="fill:#121212;"/><clipPath id="_clip32"><path d="M358.595,902.188c0,-0 -1.632,-19.112 -7.891,-20.686c-19.026,-4.785 6.658,-59.175 -4.073,-65.248c-14.065,-7.958 -56.764,14.522 -56.764,14.522l-17.985,-2.128l-10.125,3.806c0,-0 -5.914,24.575 -6.341,27.272c-0.427,2.698 -5.687,42.376 -6.27,50.032c2.594,3.054 8.137,1.573 13.77,4.846c-1.896,6.043 3.663,13.282 3.663,13.282c-0,0 25.047,20.26 36.499,22.316c19.699,3.536 35.842,-0.382 41.719,-1.348c8.254,-1.358 13.392,-1.836 13.97,-3.827c3.648,-12.561 7.84,-43.07 -0.172,-42.839Z"/></clipPath><g clip-path="url(#_clip32)"><path d="M283.212,909.421l17.011,1.902l6.502,11.778c-7.425,-2.246 -15.185,-6.371 -23.513,-13.68Z" style="fill:#2c2c2c;"/><path d="M291.09,816.687l-3.714,24.803l-11.009,-5.639l-5.367,27.499l-11.077,-9.763l3.329,-18.732l7.43,-5.46l5.639,-11.008l14.769,-1.7Z" style="fill:#2c2c2c;"/><path d="M293.787,862.488l5.506,24.894l-12.843,15.494c0,-0 -3.191,1.293 -4.417,-3.081c-1.226,-4.374 -2.227,-21.35 -2.062,-22.039c0.165,-0.69 1.422,-7.256 2.265,-9.741c0.842,-2.484 11.551,-5.527 11.551,-5.527Z" style="fill:#2c2c2c;"/><path d="M342.944,910.453l-31.559,-0.152c0,0 -4.813,5.53 -0.146,8.18c4.667,2.649 13.095,4.071 13.095,4.071l29.134,-4.519l-10.524,-7.58Z" style="fill:#2c2c2c;"/><path d="M277.973,867.51c0.475,-0.709 -6.624,-14.043 -6.624,-14.043l-5.269,25.267l-1.475,10.708l-5.708,29.667l2.231,24.318l12.171,-23.029l-4.553,-10.502l1.576,-10.06c0,0 7.176,-31.616 7.651,-32.326Z" style="fill:#31b5dd;"/></g><path d="M256.447,855.47c1.618,0.199 2.814,1.661 2.425,3.644c-0.389,1.984 0.953,20.798 0.953,20.798c0,0 4.446,17.328 3.801,21.436c-0.646,4.107 -2.806,8.622 -3.968,7.29c-1.162,-1.331 -10.512,-7.462 -9.416,-14.527c1.096,-7.065 3.443,-38.256 3.443,-38.256c0,-0 1.143,-0.583 2.762,-0.385Z" style="fill:#fff;"/><path d="M345.86,912.538c0,0 -30.338,2.24 -37.418,0.847c-4.152,-0.816 -6.682,-5.877 -7.544,-8.296l-11.962,-3.779l-3.192,-5.232l-8.996,5.604c-0,-0 1.803,14.825 7.253,20.029c5.508,5.26 17.73,10.107 23.23,10.719c3.984,0.443 8.979,-0.775 8.979,-0.775c0,-0 26.435,0.561 31.309,-1.7c1.097,-0.508 14.409,-2.859 15.08,-6.033c0.742,-3.509 2.614,-16.369 0.856,-21.116c-4.078,-0.43 -4.103,-0.632 -7.74,-0.525c-2.832,9.039 -9.855,10.257 -9.855,10.257Z" style="fill:#fff;"/><clipPath id="_clip33"><path d="M345.86,912.538c0,0 -30.338,2.24 -37.418,0.847c-4.152,-0.816 -6.682,-5.877 -7.544,-8.296l-11.962,-3.779l-3.192,-5.232l-8.996,5.604c-0,-0 1.803,14.825 7.253,20.029c5.508,5.26 17.73,10.107 23.23,10.719c3.984,0.443 8.979,-0.775 8.979,-0.775c0,-0 26.435,0.561 31.309,-1.7c1.097,-0.508 14.409,-2.859 15.08,-6.033c0.742,-3.509 2.614,-16.369 0.856,-21.116c-4.078,-0.43 -4.103,-0.632 -7.74,-0.525c-2.832,9.039 -9.855,10.257 -9.855,10.257Z"/></clipPath><g clip-path="url(#_clip33)"><path d="M300.737,901.66l6.559,23.189l13.968,-1.991l26.259,-0.001l18.923,-7.685l2.128,16.985l-80.753,-0.792c0,0 -35.131,-20.678 -34.353,-23.524c0.777,-2.846 28.149,-18.98 28.149,-18.98l19.12,12.799Z" style="fill:#e3eff3;"/><path d="M297.319,900.58l-0.839,9.026l-9.479,-4.684l-0.613,4.874l2.433,15.972c0,0 -24.55,-19.694 -24.568,-21.277c-0.018,-1.582 14.962,-13.01 14.962,-13.01l18.491,8.376l-0.387,0.723Z" style="fill:#b6d6e0;"/></g><path id="FootPiece1" serif:id="FootPiece" d="M350.908,821.449c0,-0 1.675,10.187 2.013,19.937c4.51,5.562 5.421,24.123 5.421,24.123l-2.432,21.173c0,0 -53.373,-0.247 -55.294,2.272c-1.92,2.519 -4.571,-2.434 -5.585,-4.449c-1.013,-2.016 -2.302,-31.004 -2.302,-31.004l13.678,-33.399l44.501,1.347Z" style="fill:#fff;"/><clipPath id="_clip34"><path d="M350.908,821.449c0,-0 1.675,10.187 2.013,19.937c4.51,5.562 5.421,24.123 5.421,24.123l-2.432,21.173c0,0 -53.373,-0.247 -55.294,2.272c-1.92,2.519 -4.571,-2.434 -5.585,-4.449c-1.013,-2.016 -2.302,-31.004 -2.302,-31.004l13.678,-33.399l44.501,1.347Z"/></clipPath><g clip-path="url(#_clip34)"><path d="M289.946,821.914c5.849,4.591 17.104,50.005 16.828,53.746c-0.277,3.74 20.412,-6.619 31.266,-3.317c10.854,3.302 14.447,11.753 16.173,9.118c5.497,-8.395 14.935,-29.183 25.766,-24.112c15.076,7.057 21.358,58.869 19.143,59.98c-15.053,7.549 -107.89,0.549 -116.81,-2.804c-11.176,-4.201 1.785,-97.203 7.634,-92.611Z" style="fill:#e3eff3;"/></g></g></g><path id="Chest" d="M432.791,373.576c0,0 -51.464,-2.285 -65,-8c-33.982,-14.347 -59.053,-1.537 -59,36c-0.493,15.065 -3.617,25.431 1.18,34.903c1.182,2.335 11.481,4.798 12.875,7.535c8.03,15.772 6.761,30.401 11.945,45.562c0,0 65.952,26.915 79,29c13.048,2.086 36,-37 36,-37c0,0 27.188,-45.048 20,-68c-7.188,-22.951 -37,-40 -37,-40Z" style="fill:#121212;"/><clipPath id="_clip35"><path d="M432.791,373.576c0,0 -51.464,-2.285 -65,-8c-33.982,-14.347 -59.053,-1.537 -59,36c-0.493,15.065 -3.617,25.431 1.18,34.903c1.182,2.335 11.481,4.798 12.875,7.535c8.03,15.772 6.761,30.401 11.945,45.562c0,0 65.952,26.915 79,29c13.048,2.086 36,-37 36,-37c0,0 27.188,-45.048 20,-68c-7.188,-22.951 -37,-40 -37,-40Z"/></clipPath><g clip-path="url(#_clip35)"><path d="M344.791,444.576l1,35c0,0 7.329,8.335 8,13c0.671,4.666 1,10 1,10l-20,-18l-3,-35c0,0 6.84,-9.265 10,-9c3.16,0.266 3,4 3,4Z" style="fill:#fff;"/><path d="M433.791,480.576l-20,0c0,0 -10.488,-8.793 -13,-7c-2.512,1.793 -0.475,16.685 5,20l17,1c0,0 -8.767,9.914 -18,11c-9.233,1.087 2.267,2.811 4,3c1.734,0.19 24.539,-13.162 26,-17c1.461,-3.838 -1,-11 -1,-11Z" style="fill:#2c2c2c;"/><path d="M369.269,473.974c-1.037,0.495 -2.933,1.368 -4.329,1.827c-1.086,0.357 -2.086,0.716 -2.691,0.697c-1.794,-0.053 -3.814,-1.265 -5.626,-2.091c-2.344,-1.069 -4.513,-1.768 -6.067,-1.787c-2.711,-0.033 -4.94,2.141 -4.973,4.852c-0.033,2.657 2.053,4.85 4.688,4.967c0.177,0.071 2.199,0.875 3.494,1.468c2.689,1.23 5.632,2.336 8.189,2.413c2.749,0.082 9.853,-2.34 12.894,-4.143c1.859,-1.102 2.786,-2.431 3.105,-3.151c0.649,-1.466 0.549,-2.797 0.099,-3.95c-0.396,-1.017 -1.121,-2.063 -2.573,-2.767c-2.224,-1.078 -4.865,-0.326 -6.21,1.665Zm0.228,5.822c0.345,0.46 0.813,0.88 1.448,1.225c-0.573,-0.318 -1.06,-0.738 -1.448,-1.225Z" style="fill:#2c2c2c;"/><path d="M318.757,415.596c-21.916,-2.18 -21.086,10.815 -24.929,26.77c-3.844,15.955 1.086,29.867 11.002,31.048c9.915,1.18 15.086,-16.815 18.929,-32.77c3.843,-15.956 16.913,-22.867 -5.002,-25.048Z" style="fill:#2c2c2c;"/><path d="M322.853,407.941c3.235,2.368 8.166,-3.513 11.005,-13.126c2.839,-9.612 2.518,-19.339 -0.717,-21.707" style="fill:none;stroke:#31b5dd;stroke-width:6.25px;"/><path d="M314.745,407.026c-2.388,-2.542 -2.022,-12.41 0.817,-22.023c2.839,-9.612 7.083,-15.352 9.471,-12.81" style="fill:none;stroke:#31b5dd;stroke-width:4.58px;"/></g><path id="Reactor" d="M395.791,469.576l-7,8c-7.364,-6.141 -14.409,-13.13 -20,-24c0,0 -4.758,1.234 -7,0c-2.242,-1.233 -11.865,-27.053 -8,-32c3.873,-4.957 9,-8 9,-8c0,0 17.037,-37.738 52,-36c34.964,1.739 51,40 51,40c3.226,9.667 2.908,19.334 0,29l-5,7c-0.942,10.392 -6.867,17.8 -13,23l-7,-6l18,-24c0.888,-8.322 2.181,-18.929 1.578,-21.801c-0.241,-1.152 -3.434,-8.528 -4.802,-6.241c-1.936,3.237 -2.221,15.802 -2.657,15.704c-0.739,-0.166 -2.843,9.666 -5.119,9.338c-0.3,7.421 -4.855,22.127 -17,20c-2.669,-2.082 -1.861,-5.784 0,-9c0,0 -3.027,1.382 -10,1c-6.973,-0.381 -11,-3 -11,-3c0.817,4.1 0.448,7.41 -1,10c-9.053,-3.355 -17.84,-7.933 -25,-20c-8.598,-1.865 -8.411,-21.953 -4.617,-31.382c-5.423,1.385 -9.708,4.723 -13.017,9.733c-1.179,7.659 -0.047,15.318 1.798,22.978c4.328,3.944 8.018,5.465 10.836,3.671l17,22Z" style="fill:#fff;"/><clipPath id="_clip36"><path d="M395.791,469.576l-7,8c-7.364,-6.141 -14.409,-13.13 -20,-24c0,0 -4.758,1.234 -7,0c-2.242,-1.233 -11.865,-27.053 -8,-32c3.873,-4.957 9,-8 9,-8c0,0 17.037,-37.738 52,-36c34.964,1.739 51,40 51,40c3.226,9.667 2.908,19.334 0,29l-5,7c-0.942,10.392 -6.867,17.8 -13,23l-7,-6l18,-24c0.888,-8.322 2.181,-18.929 1.578,-21.801c-0.241,-1.152 -3.434,-8.528 -4.802,-6.241c-1.936,3.237 -2.221,15.802 -2.657,15.704c-0.739,-0.166 -2.843,9.666 -5.119,9.338c-0.3,7.421 -4.855,22.127 -17,20c-2.669,-2.082 -1.861,-5.784 0,-9c0,0 -3.027,1.382 -10,1c-6.973,-0.381 -11,-3 -11,-3c0.817,4.1 0.448,7.41 -1,10c-9.053,-3.355 -17.84,-7.933 -25,-20c-8.598,-1.865 -8.411,-21.953 -4.617,-31.382c-5.423,1.385 -9.708,4.723 -13.017,9.733c-1.179,7.659 -0.047,15.318 1.798,22.978c4.328,3.944 8.018,5.465 10.836,3.671l17,22Z"/></clipPath><g clip-path="url(#_clip36)"><circle cx="418.791" cy="429.576" r="38" style="fill:#31b5dd;"/><path d="M373.791,417.576c0.171,-2.467 13.761,-13.733 11,-19c-2.761,-5.266 -14.536,-0.377 -17,1c-2.464,1.378 -19.7,18.098 -20,20c-0.3,1.903 1.647,21.664 4,27c2.353,5.336 7.633,17.71 12,14c4.367,-3.709 10.149,-7.409 12,-12c1.851,-4.591 -0.595,-10.368 -1,-13c-0.405,-2.632 -1.17,-15.532 -1,-18Z" style="fill:#e3eff3;"/><path d="M453.791,443.576c0.006,1.117 -5.028,7.559 4,10c9.029,2.441 16.177,5.272 16,-4c-0.177,-9.271 0.406,-26.08 -3,-29c-3.405,-2.919 -7.695,-5.418 -11,-7c-3.305,-1.581 -8,-4 -8,-4c0,0 -4.27,-1.619 0,5c4.271,6.62 6.456,15.632 6,17c-0.455,1.368 -4.006,10.884 -4,12Z" style="fill:#e3eff3;"/><circle cx="418.791" cy="427.576" r="28" style="fill:#202020;"/><clipPath id="_clip37"><circle cx="418.791" cy="427.576" r="28"/></clipPath><g clip-path="url(#_clip37)"><circle cx="410.791" cy="424.576" r="17" style="fill:#121212;"/><path d="M405.791,432.576l17,0l18,34l-35,0l0,-34Z" style="fill:#121212;"/></g><path d="M441.791,406.576c1.817,0.248 13.127,12.235 12,21c-1.127,8.766 -8.053,18.941 -9,17c-0.403,-0.826 1.643,-9.092 0.866,-17.704c-0.9,-9.964 -4.563,-20.391 -3.866,-20.296Z" style="fill:#fd6785;"/><path d="M401.609,401.212c-5.085,-7.992 -20.506,3.942 -23.955,12.079c-3.449,8.136 -0.543,27.499 6.195,26.218c5.814,-1.105 4.168,-15.679 9.184,-22.723c5.803,-8.15 12.073,-10.076 8.576,-15.574Z" style="fill:#fd6785;"/><path d="M446.728,417.053c-2.486,-3.779 -6.564,-5.493 -9.1,-3.825c-2.536,1.669 -2.576,6.092 -0.09,9.871c2.487,3.78 6.565,5.494 9.1,3.825c2.536,-1.668 2.577,-6.091 0.09,-9.871Z" style="fill:#fff;"/></g><g id="Head"><g id="Turbos"><ellipse cx="387.791" cy="185.576" rx="129" ry="96" style="fill:#202020;"/><path d="M491.791,150.576c0,0 32.26,15.28 35,28c2.74,12.721 -4.287,39.995 -5,49c-0.713,9.006 -4.049,23.092 -10,21c-5.951,-2.092 -13,-21 -13,-21l-7,-77Z" style="fill:#31b5dd;"/><clipPath id="_clip38"><path d="M491.791,150.576c0,0 32.26,15.28 35,28c2.74,12.721 -4.287,39.995 -5,49c-0.713,9.006 -4.049,23.092 -10,21c-5.951,-2.092 -13,-21 -13,-21l-7,-77Z"/></clipPath><g clip-path="url(#_clip38)"><path d="M495.791,152.576l35,54c0,0 -9.734,49.791 -12,51c-2.266,1.21 -33.912,-8.301 -35,-11c-1.087,-2.698 12,-94 12,-94Z" style="fill:#404242;"/><path d="M506.791,191.576c0,0 6.954,9.54 7,13c0.046,3.46 -3.786,12.436 -6,14c-2.214,1.565 -3.792,-10.184 -4,-12c-0.207,-1.815 3,-15 3,-15Z" style="fill:#202020;"/><path d="M520.791,164.576c0,0 12.954,21.54 13,25c0.046,3.46 -3.786,12.436 -6,14c-2.214,1.565 -3.792,-10.184 -4,-12c-0.207,-1.815 -3,-27 -3,-27Z" style="fill:#b6d6e0;"/></g><path d="M314.791,130.576c3.559,-1.186 -19.593,-24.41 -39,-20c-12.793,2.908 -34.361,8.587 -42,26c-7.639,17.414 -5.698,25.898 -5,30l20,32l45,43l54,-53l-33,-58Z" style="fill:#2c2c2c;"/><clipPath id="_clip39"><path d="M314.791,130.576c3.559,-1.186 -19.593,-24.41 -39,-20c-12.793,2.908 -34.361,8.587 -42,26c-7.639,17.414 -5.698,25.898 -5,30l20,32l45,43l54,-53l-33,-58Z"/></clipPath><g clip-path="url(#_clip39)"><path d="M323.791,150.576c-5.832,-11.005 -85.331,15.58 -84,47l12,12c0,0 -3.349,-28.415 18,-41c21.35,-12.584 53,-14 53,-14c0,0 2.087,-1.948 1,-4Z" style="fill:#202020;"/><path d="M256.716,197.033c-1.367,-1.499 -1.26,-3.826 0.24,-5.194l5.433,-4.954c1.5,-1.367 3.827,-1.26 5.194,0.239l13.459,14.761c1.368,1.499 1.26,3.826 -0.239,5.194l-5.434,4.954c-1.499,1.368 -3.826,1.26 -5.194,-0.239l-13.459,-14.761Z" style="fill:#202020;"/><path d="M299.791,199.576c0.459,-2.271 -12.119,1.921 -14,5c-1.881,3.08 -10.559,11.036 -8,14c2.559,2.964 7.253,4.722 9,5c1.748,0.279 8.42,4.434 9,2c0.58,-2.433 5,-10 5,-10c-1.934,0.43 -1.342,-14.303 -1,-16Z" style="fill:#202020;"/><path d="M262.791,110.576c-5.431,1.124 -8.003,3.209 -9,8c-0.996,4.792 4.526,23.67 12,25c7.475,1.331 7,2 7,2c0,0 -4.338,2.524 -3,6c1.338,3.477 0.201,9.351 7,13c6.799,3.649 19.401,14.059 22,19c2.6,4.942 10,-3 10,-3c0,0 -22.537,-29.566 -22,-36c0.537,-6.434 -1.333,-12.131 -2,-14c-0.667,-1.868 -12.454,-21.975 -22,-20Z" style="fill:#404242;"/><path d="M322.791,142.576c0,0 -47.396,9.566 -53,12c-5.604,2.435 -23.705,37.064 -24,42c-0.294,4.937 -35.57,-22.937 -36,-26c-0.43,-3.063 11,-59 11,-59l70,-10l32,39" style="fill:#e3eff3;"/><clipPath id="_clip40"><path d="M322.791,142.576c0,0 -47.396,9.566 -53,12c-5.604,2.435 -23.705,37.064 -24,42c-0.294,4.937 -35.57,-22.937 -36,-26c-0.43,-3.063 11,-59 11,-59l70,-10l32,39"/></clipPath><g clip-path="url(#_clip40)"><path d="M262.791,110.576c-5.431,1.124 -8.003,3.209 -9,8c-0.996,4.792 4.526,23.67 12,25c7.475,1.331 7,2 7,2c0,0 -4.338,2.524 -3,6c1.338,3.477 0.201,9.351 7,13c6.799,3.649 19.401,14.059 22,19c2.6,4.942 10,-3 10,-3c0,0 -22.537,-29.566 -22,-36c0.537,-6.434 -1.333,-12.131 -2,-14c-0.667,-1.868 -12.454,-21.975 -22,-20Z" style="fill:#fff;"/></g></g><path d="M396.791,103.576c-1.819,-12.236 -22.37,-51.84 -30,-55c-5.838,-3.518 -14.586,-4.039 -18,-3c-3.414,1.04 -33.654,14.26 -36,22c-2.345,7.741 -3.432,21.562 -2,26c1.432,4.439 15.865,42.17 23,46c7.136,3.831 31.475,1.971 41,-6c9.525,-7.97 22,-30 22,-30Z" style="fill:#404040;"/><clipPath id="_clip41"><path d="M396.791,103.576c-1.819,-12.236 -22.37,-51.84 -30,-55c-5.838,-3.518 -14.586,-4.039 -18,-3c-3.414,1.04 -33.654,14.26 -36,22c-2.345,7.741 -3.432,21.562 -2,26c1.432,4.439 15.865,42.17 23,46c7.136,3.831 31.475,1.971 41,-6c9.525,-7.97 22,-30 22,-30Z"/></clipPath><g clip-path="url(#_clip41)"><path d="M392.791,78.576c0,0 -30.887,-8.924 -49,-2c-22.006,8.413 -40.578,33.768 -36,35l-17,-50l53,-22l34,1l15,38Z" style="fill:#fff;"/><clipPath id="_clip42"><path d="M392.791,78.576c0,0 -30.887,-8.924 -49,-2c-22.006,8.413 -40.578,33.768 -36,35l-17,-50l53,-22l34,1l15,38Z"/></clipPath><g clip-path="url(#_clip42)"><path d="M345.791,78.576c2.648,19.519 -22,34 -22,34c0,0 -26.761,-2.519 -28,-4c-1.239,-1.481 -9,-37 -9,-37l34,-24c0,0 22.353,11.482 25,31Z" style="fill:#e3eff3;"/><path d="M347.791,43.576c0,0 14.84,4.191 17,6c2.16,1.81 -9.764,-3.363 -9,2c0.765,5.364 31,29 31,29c0,0 13.359,-12.499 11,-17c-2.359,-4.5 -11.755,-28.145 -25,-28c-13.245,0.146 -25,8 -25,8Z" style="fill:#e3eff3;"/></g><path d="M402.791,90.576c0,0 -20.821,-6.377 -21,-3c-0.179,3.378 6.347,7.515 7,11c0.654,3.486 -3.967,1.686 -6,7c-2.033,5.315 -6.407,12.433 -6,14c0.407,1.568 -3.577,-5.029 -6,-7c-2.422,-1.97 -4.872,0.534 -5,-2c-0.128,-2.533 1.98,-5.919 0,-8c-1.979,-2.081 -1.884,-2.786 -3,-4c-1.115,-1.214 0.106,-6.39 -2,-9c-2.106,-2.609 -11.97,-7.96 -19,-5c-7.03,2.96 -19.726,12.664 -20,16c-0.274,3.337 0.132,5.11 0,7c-0.131,1.891 -4.897,1.553 -7,4c-2.103,2.448 -9.21,8.588 -10,11c-0.79,2.413 0.809,15.8 3,20c2.192,4.201 20.875,14.265 22,15c1.125,0.736 48,-13 48,-13c0,0 37.419,-42.21 36,-44c-1.419,-1.79 -11,-10 -11,-10Z" style="fill:#2c2c2c;"/><path d="M331.791,97.576c2.543,0.498 15.024,17.907 8,28c-7.024,10.093 -16.58,-2.032 -17,-9c-0.419,-6.967 4.154,-12.203 5,-14c0.847,-1.796 1.457,-5.498 4,-5Z" style="fill:#202020;"/><path d="M394.791,121.576c-2.344,0.399 -17.604,-2.178 -30,0c-12.395,2.179 -23.72,7.32 -25,10c-1.28,2.681 -3.432,12.681 -2,14c1.432,1.32 26.265,14.713 28,13c1.735,-1.712 31.344,-37.398 29,-37Z" style="fill:#202020;"/></g><path d="M417.405,130.673c1.508,-12.278 33.047,-49.391 40.594,-52.744c5.747,-3.665 15.479,-3.408 18.918,-2.456c3.44,0.952 21.006,9.4 23.547,17.079c2.541,7.678 10.654,64.021 2.835,67.51c-7.395,3.3 -53.415,7.769 -63.139,0.043c-9.724,-7.726 -22.755,-29.432 -22.755,-29.432Z" style="fill:#404040;"/><clipPath id="_clip43"><path d="M417.405,130.673c1.508,-12.278 33.047,-49.391 40.594,-52.744c5.747,-3.665 15.479,-3.408 18.918,-2.456c3.44,0.952 21.006,9.4 23.547,17.079c2.541,7.678 10.654,64.021 2.835,67.51c-7.395,3.3 -53.415,7.769 -63.139,0.043c-9.724,-7.726 -22.755,-29.432 -22.755,-29.432Z"/></clipPath><g clip-path="url(#_clip43)"><path d="M447.791,98.576c0,0 54.667,9.027 53,56c-1.383,38.955 4,14 4,14c0,0 19.164,-15.394 18,-19c-1.164,-3.606 -6.304,-50.261 -10,-51c-3.696,-0.739 -50,-12 -50,-12l-15,12Z" style="fill:#2c2c2c;"/><path d="M420.769,105.58c0,-0 39.651,-7.706 57.934,-1.244c22.212,7.851 33.422,21.726 28.877,23.075l14.725,-41.416l-53.542,-20.647l-33.964,1.863l-14.03,38.369Z" style="fill:#fff;"/><clipPath id="_clip44"><path d="M420.769,105.58c0,-0 39.651,-7.706 57.934,-1.244c22.212,7.851 33.422,21.726 28.877,23.075l14.725,-41.416l-53.542,-20.647l-33.964,1.863l-14.03,38.369Z"/></clipPath><g clip-path="url(#_clip44)"><path d="M488.754,93.386c5.329,18.963 1.856,44.431 1.856,44.431c0,-0 26.689,-3.198 27.89,-4.71c1.201,-1.512 8.057,-37.217 8.057,-37.217c-46.076,-28.992 -74.859,-42.868 -44.598,-5.129c-0,0 4.946,-3.955 6.795,2.625Z" style="fill:#e3eff3;"/><path d="M474.866,77.448c-1.87,-2.43 -18.905,1.036 -19.842,4.43c-0.75,2.717 17.676,5.389 17.048,10.771c-0.628,5.381 -45.254,14.778 -45.254,14.778c0,-0 -13.672,-12.157 -11.428,-16.716c2.244,-4.558 11.037,-28.434 24.281,-28.625c13.244,-0.191 35.195,15.362 35.195,15.362Z" style="fill:#e3eff3;"/></g></g></g><path id="Face" d="M414.791,137.213c-50.776,-8.765 -92,31.107 -92,88.982c0,57.876 41.224,111.98 92,120.744c50.776,8.765 92,-31.106 92,-88.982c0,-57.875 -41.224,-111.979 -92,-120.744Z" style="fill:#404242;"/><clipPath id="_clip45"><path d="M414.791,137.213c-50.776,-8.765 -92,31.107 -92,88.982c0,57.876 41.224,111.98 92,120.744c50.776,8.765 92,-31.106 92,-88.982c0,-57.875 -41.224,-111.979 -92,-120.744Z"/></clipPath><g clip-path="url(#_clip45)"><path d="M459.791,299.576c-5.189,1.178 -21.177,-2.549 -26,-3c-4.822,-0.45 -19.911,-1.413 -21,-2c-1.089,-0.586 -2.68,-8.869 -5,-9c-2.319,-0.13 -4.738,4.215 -7,4c-2.261,-0.214 -14.472,-6.529 -17,-8c-2.528,-1.471 -30.854,-21.649 -32,-25c-1.145,-3.35 0.36,-30.148 -6,-39c-6.36,-8.851 12,-22 12,-22c0,0 20.445,10.14 20,12c-0.444,1.861 -5.147,18.863 -6,23c-0.853,4.138 -2,20 -2,20l26,0c0,0 13.021,6.23 15,8c1.979,1.771 27.226,14.608 30,17c2.774,2.393 21,10 21,10l-2,14" style="fill:#2c2c2c;"/><path d="M477.791,260.826c0,-2.345 1.905,-4.25 4.25,-4.25l8.5,0c2.346,0 4.25,1.905 4.25,4.25l0,40.5c0,2.346 -1.904,4.25 -4.25,4.25l-8.5,0c-2.345,0 -4.25,-1.904 -4.25,-4.25l0,-40.5Z" style="fill:#121212;"/><path d="M486.003,301.498c1.922,-1.345 6.574,7.123 7.919,9.044l4.876,6.963c1.345,1.921 0.878,4.573 -1.044,5.919l-33.175,23.23c-1.921,1.346 -4.574,0.878 -5.919,-1.043l-4.876,-6.963c-1.345,-1.921 -2.877,-5.574 -0.956,-6.919c13.487,-8.188 23.961,-18.719 33.175,-30.231Z" style="fill:#121212;"/><path d="M438.791,314.576c0,0 -3.643,4.158 -7,3c-3.356,-1.157 -10,-7 -10,-7" style="fill:none;stroke:#e3eff3;stroke-width:4.17px;stroke-linejoin:round;stroke-miterlimit:1.5;"/><path d="M483.791,284.576c0.538,5.854 -24.936,37.342 -32,43c-7.064,5.659 30.51,6.194 39,-8c8.49,-14.194 -7.538,-40.853 -7,-35Z" style="fill:none;"/><path d="M408.791,192.576l-28,-4l-14,21c0,0 -0.611,3.295 1,4c1.611,0.706 6,-1 6,-1l28,40c0,0 5.68,6.124 10,2c4.32,-4.123 3,-14 3,-14c-5.687,-18.534 -7.082,-39.344 -31,-54" style="fill:#121212;"/></g><g id="Eye"><path d="M382.791,224.576c-7.727,-2.759 -14,8.219 -14,24.5c0,16.282 6.273,31.741 14,34.5c7.727,2.76 14,-8.218 14,-24.5c0,-16.281 -6.273,-31.74 -14,-34.5Z" style="fill:#121212;"/><g id="Grids"><path d="M371.791,222.326l7,5.25l0,17.75l-7,-5.25l0,-17.75Z" style="fill:#b6d6e0;"/><path d="M372.791,260.326l6,4.5l0,16.5l-6,-4.5l0,-16.5Z" style="fill:#b6d6e0;"/><path d="M358.791,251.326l10,7.5l0,13.5l-10,-7.5l0,-13.5Z" style="fill:#1c88a8;"/><path d="M390.791,274.326l8,6l0,14l-8,-6l0,-14Z" style="fill:#1c88a8;"/><path d="M400.791,264.326l6,4.5l0,10.5l-6,-4.5l0,-10.5Z" style="fill:#1c88a8;"/><path d="M390.791,243.326l6,4.5l0,10.5l-6,-4.5l0,-10.5Z" style="fill:#1c88a8;"/><path d="M358.791,233.326l10,7.5l0,13.5l-10,-7.5l0,-13.5Z" style="fill:#1c88a8;"/><path d="M360.791,214.326l8,6l0,17l-8,-6l0,-17Z" style="fill:#1c88a8;"/><path d="M348.791,228.326l6,4.5l0,13.5l-6,-4.5l0,-13.5Z" style="fill:#187692;"/><path d="M372.791,244.326l6,4.5l0,12.5l-6,-4.5l0,-12.5Z" style="fill:#b6d6e0;"/><path d="M390.791,256.326l6,4.5l0,12.5l-6,-4.5l0,-12.5Z" style="fill:#b6d6e0;"/><path d="M380.791,266.826l8,6l0,16l-8,-6l0,-16Z" style="fill:#b6d6e0;"/></g></g><g id="Helmet"><g id="Jaw"><path id="Jaw1" serif:id="Jaw" d="M353.791,193.576c0,0 2.734,14.078 1,18l-23,39c0,0 -4.491,10.892 -2,12c2.491,1.109 9,2 9,2c14.887,0.312 35.69,42.016 35,49c-0.532,5.385 39.015,20.147 48,18c4.278,-5.309 3.206,-6.852 10,-7l31,1c3.483,0.023 4.556,0.507 5,6l8,-5c0,0 -0.39,-4.6 1,-7l11,-12c-3.488,-2.586 -1.48,-17.34 5,-42l8,-30c3.49,3.103 17.259,36.369 13,50l-5,3c0,0 3.107,12.334 0,20c-7.168,11.79 -16.56,19.687 -28,24c1.858,2.572 -32.962,33.257 -64,32l-10,0l-73,-51l-9,-1l-13,-14l9,-1c0,0 -14.269,-19.231 -15,-31l3,-5c0,0 -10.127,-1.606 -14,-5c-3.873,-3.394 -3.759,-11.623 -1,-17c2.759,-5.376 26,-51 26,-51l34,5Z" style="fill:#31b5dd;"/><clipPath id="_clip46"><path d="M353.791,193.576c0,0 2.734,14.078 1,18l-23,39c0,0 -4.491,10.892 -2,12c2.491,1.109 9,2 9,2c14.887,0.312 35.69,42.016 35,49c-0.532,5.385 39.015,20.147 48,18c4.278,-5.309 3.206,-6.852 10,-7l31,1c3.483,0.023 4.556,0.507 5,6l8,-5c0,0 -0.39,-4.6 1,-7l11,-12c-3.488,-2.586 -1.48,-17.34 5,-42l8,-30c3.49,3.103 17.259,36.369 13,50l-5,3c0,0 3.107,12.334 0,20c-7.168,11.79 -16.56,19.687 -28,24c1.858,2.572 -32.962,33.257 -64,32l-10,0l-73,-51l-9,-1l-13,-14l9,-1c0,0 -14.269,-19.231 -15,-31l3,-5c0,0 -10.127,-1.606 -14,-5c-3.873,-3.394 -3.759,-11.623 -1,-17c2.759,-5.376 26,-51 26,-51l34,5Z"/></clipPath><g clip-path="url(#_clip46)"><path d="M357.791,181.576c-0.696,7.913 -58,97 -58,97l-31,-19l35,-88c0,0 54.696,2.088 54,10Z" style="fill:#31b5dd;"/><clipPath id="_clip47"><path d="M357.791,181.576c-0.696,7.913 -58,97 -58,97l-31,-19l35,-88c0,0 54.696,2.088 54,10Z"/></clipPath><g clip-path="url(#_clip47)"><path d="M306.791,199.576c-1.952,0.601 14.103,19.715 21,19l-20,29c0,0 -6.573,13.669 7,14c9.594,0.235 -17,14 -17,14l-28,-29l37,-47Z" style="fill:#1c88a8;"/></g><path d="M296.791,264.576c0,0 36.772,-3.013 45,-1c8.228,2.014 23.217,17.108 24,23c0.783,5.893 11.825,15.815 14,18c2.175,2.186 12,14 12,14c0,0 -44.108,9.988 -65,-1c-20.892,-10.987 -32,-30 -32,-30l2,-23Z" style="fill:#fff;"/><clipPath id="_clip48"><path d="M296.791,264.576c0,0 36.772,-3.013 45,-1c8.228,2.014 23.217,17.108 24,23c0.783,5.893 11.825,15.815 14,18c2.175,2.186 12,14 12,14c0,0 -44.108,9.988 -65,-1c-20.892,-10.987 -32,-30 -32,-30l2,-23Z"/></clipPath><g clip-path="url(#_clip48)"><path d="M301.791,259.576l26,4c0,0 31.558,36.166 31,42c-0.558,5.835 -34.535,23.67 -46,13c-11.465,-10.67 -11,-59 -11,-59Z" style="fill:#e3eff3;"/><clipPath id="_clip49"><path d="M301.791,259.576l26,4c0,0 31.558,36.166 31,42c-0.558,5.835 -34.535,23.67 -46,13c-11.465,-10.67 -11,-59 -11,-59Z"/></clipPath><g clip-path="url(#_clip49)"><path d="M301.791,255.576c0,0 26.267,27.681 25,36c-1.267,8.32 -20.524,14.02 -27,9c-6.475,-5.019 -16,-32 -16,-32l18,-13Z" style="fill:#b6d6e0;"/></g></g><path d="M495.791,257.576c0,0 5.282,20.725 4,24c-1.282,3.275 -3,9 -3,9c0,0 5.561,-6.262 7,-4c1.44,2.263 6.876,7.155 7,16c0.136,9.721 -13.471,37.033 -27,29c-3.416,-0.263 -4.533,-3.179 -4,-8c0,0 -3.882,4.333 -5,2c-1.117,-2.332 6,-42 6,-42l15,-26Z" style="fill:#fff;"/><clipPath id="_clip50"><path d="M495.791,257.576c0,0 5.282,20.725 4,24c-1.282,3.275 -3,9 -3,9c0,0 5.561,-6.262 7,-4c1.44,2.263 6.876,7.155 7,16c0.136,9.721 -13.471,37.033 -27,29c-3.416,-0.263 -4.533,-3.179 -4,-8c0,0 -3.882,4.333 -5,2c-1.117,-2.332 6,-42 6,-42l15,-26Z"/></clipPath><g clip-path="url(#_clip50)"><path d="M493.34,296.73c0.234,2.534 0.451,4.846 0.451,4.846l8,-11c0,0 -1.459,7.464 -5.004,13.723c-2.879,5.086 -6.814,9.036 -7.996,10.277c-2.636,2.769 -9.971,13.042 -13,10c-3.029,-3.041 3,-7 3,-7l9,-11l3,-4c0,0 0.033,-0.243 0.09,-0.66c-1.319,2.253 -2.09,2.66 -2.09,2.66l-5,-10c1.97,-15.091 5.689,-28.934 11,-34c0,0 2.029,27.042 -1,35c-0.153,0.402 -0.303,0.787 -0.451,1.154Z" style="fill:#e3eff3;"/></g><path d="M340.843,201.671c2.643,-4.885 8.754,-6.706 13.64,-4.063c4.885,2.642 6.706,8.754 4.063,13.64l-25.888,47.857c-2.643,4.885 -8.755,6.706 -13.64,4.063c-4.886,-2.643 -6.706,-8.755 -4.064,-13.64l25.889,-47.857Z" style="fill:#fff;"/><clipPath id="_clip51"><path d="M340.843,201.671c2.643,-4.885 8.754,-6.706 13.64,-4.063c4.885,2.642 6.706,8.754 4.063,13.64l-25.888,47.857c-2.643,4.885 -8.755,6.706 -13.64,4.063c-4.886,-2.643 -6.706,-8.755 -4.064,-13.64l25.889,-47.857Z"/></clipPath><g clip-path="url(#_clip51)"><path d="M360.144,194.989c-2.127,-0.695 -12.533,-1.061 -14.906,4.208c-2.374,5.269 -0.609,12.912 4.091,14.293c4.699,1.382 18.18,5.108 18.402,0.004c0.222,-5.104 -5.459,-17.811 -7.587,-18.505Z" style="fill:#b6d6e0;"/><path d="M337.698,256.675c0.665,-5.516 -20.257,-0.067 -22.18,-5.548c-2.439,-6.951 -9.667,10.763 3.022,14.049c8.226,2.13 18.446,-2.587 19.158,-8.501Z" style="fill:#b6d6e0;"/></g></g><g id="Side"><path d="M307.791,252.576c-2.495,0.339 -37.473,-46.143 -41,-47c-3.526,-0.856 -32,-29 -32,-29c0,0 6.426,17.025 6,21c-0.426,3.976 -7.312,10.903 -3,17c4.312,6.097 17,26 17,26l54,72c0,0 26.959,20.646 34,21c7.041,0.355 21,-6 21,-6l-35,-27l-11,-37c0,0 -7.505,-11.338 -10,-11Z" style="fill:#121212;"/><path d="M295.791,258.576c0,0 -46.943,-40.281 -50,-37c-3.056,3.282 2.387,45.034 18,57c15.613,11.967 41.068,32.269 46,32c4.933,-0.268 -2.456,-26.304 -15,-44c-4.606,-6.497 1,-8 1,-8Z" style="fill:#fff;"/><clipPath id="_clip52"><path d="M295.791,258.576c0,0 -46.943,-40.281 -50,-37c-3.056,3.282 2.387,45.034 18,57c15.613,11.967 41.068,32.269 46,32c4.933,-0.268 -2.456,-26.304 -15,-44c-4.606,-6.497 1,-8 1,-8Z"/></clipPath><g clip-path="url(#_clip52)"><path d="M238.791,221.576c0,0 38.312,40.327 46,45c7.689,4.674 8.469,26.584 16,28c7.531,1.417 9.757,-4.16 9,-6c-0.757,-1.84 7.281,20.783 7,23c-0.28,2.217 -13.448,25.281 -26,19c-12.552,-6.28 -70.528,-56.569 -71,-64c-0.472,-7.431 19,-45 19,-45Z" style="fill:#e3eff3;"/></g><path d="M463.791,333.576c0,0 -0.801,-8.983 -5,-10c-4.199,-1.016 -30.167,-1.414 -33,-1c-2.832,0.415 -5.186,6.624 -6,8l-8,0c0,0 -8.341,2.663 -10,7c-2.18,5.7 -2.893,26.072 -2,25c6.788,2.067 18.442,4.4 28.121,3.55c20.273,-6.414 38.8,-24.777 38.879,-29.55c0.065,-3.912 -3,-3 -3,-3Z" style="fill:#fff;"/><clipPath id="_clip53"><path d="M463.791,333.576c0,0 -0.801,-8.983 -5,-10c-4.199,-1.016 -30.167,-1.414 -33,-1c-2.832,0.415 -5.186,6.624 -6,8l-8,0c0,0 -8.341,2.663 -10,7c-2.18,5.7 -2.893,26.072 -2,25c6.788,2.067 18.442,4.4 28.121,3.55c20.273,-6.414 38.8,-24.777 38.879,-29.55c0.065,-3.912 -3,-3 -3,-3Z"/></clipPath><g clip-path="url(#_clip53)"><path d="M424.791,322.576c0,0 9.72,13.594 10,17l21,3l14,-10c8.25,3.772 -29.108,41.183 -37,40c-2.781,-0.416 -44.66,-5.596 -45,-7c-0.34,-1.403 16,-40 16,-40l21,-3Z" style="fill:#e3eff3;"/></g><path d="M282.791,231.576c-1.37,-1.733 -13.267,-8.25 -19,-11c-5.733,-2.749 -8.699,-7.693 -12,-6c-3.301,1.694 -4.039,7.849 -1,10l32,27c0,0 6.252,-1.839 5,-5c-1.252,-3.16 -3.63,-13.266 -5,-15Z" style="fill:#fd6785;"/><clipPath id="_clip54"><path d="M282.791,231.576c-1.37,-1.733 -13.267,-8.25 -19,-11c-5.733,-2.749 -8.699,-7.693 -12,-6c-3.301,1.694 -4.039,7.849 -1,10l32,27c0,0 6.252,-1.839 5,-5c-1.252,-3.16 -3.63,-13.266 -5,-15Z"/></clipPath><g clip-path="url(#_clip54)"><path d="M242.943,219.163c-0.889,-1.29 -0.563,-3.059 0.726,-3.948l4.674,-3.221c1.29,-0.889 3.059,-0.564 3.948,0.726l14.659,21.27c0.889,1.29 0.564,3.059 -0.726,3.948l-4.674,3.221c-1.29,0.889 -3.059,0.563 -3.948,-0.726l-14.659,-21.27Z" style="fill:#d44c77;"/></g></g></g><path id="Helmet1" serif:id="Helmet" d="M443.791,97.576c48.637,8.043 94.301,99.153 49,166l-9,0c-3.801,15.039 -29.514,39.051 -37,38c-4.694,-0.659 -33,-37 -33,-37c0,0 -0.51,-6.902 -0.176,-10.235c0.332,-3.318 0.176,-10.765 0.176,-10.765c-9.591,-20.04 -16.441,-41.453 -29,-52c-6.666,-1.329 -11.562,6.188 -16,16c0,0 -11.924,-8.061 -21,-8c-9.075,0.062 -31.383,1.554 -35,-1c-2.528,-1.785 -13.84,-25.105 -12,-37c1.648,-10.647 10,-20 10,-20l61,-4c21.373,-26.142 43.648,-47.882 72,-40Z" style="fill:#fff;"/><clipPath id="_clip55"><path d="M443.791,97.576c48.637,8.043 94.301,99.153 49,166l-9,0c-3.801,15.039 -29.514,39.051 -37,38c-4.694,-0.659 -33,-37 -33,-37c0,0 -0.51,-6.902 -0.176,-10.235c0.332,-3.318 0.176,-10.765 0.176,-10.765c-9.591,-20.04 -16.441,-41.453 -29,-52c-6.666,-1.329 -11.562,6.188 -16,16c0,0 -11.924,-8.061 -21,-8c-9.075,0.062 -31.383,1.554 -35,-1c-2.528,-1.785 -13.84,-25.105 -12,-37c1.648,-10.647 10,-20 10,-20l61,-4c21.373,-26.142 43.648,-47.882 72,-40Z"/></clipPath><g clip-path="url(#_clip55)"><path d="M362.791,129.576l37,84l-83,9l-45,-78l67,-24l24,9Z" style="fill:#31b5dd;"/><clipPath id="_clip56"><path d="M362.791,129.576l37,84l-83,9l-45,-78l67,-24l24,9Z"/></clipPath><g clip-path="url(#_clip56)"><path d="M272.637,171.049c-2.007,-4.087 -0.319,-9.035 3.768,-11.042l14.811,-7.273c4.087,-2.007 9.035,-0.318 11.042,3.769l20.445,41.634c2.007,4.087 0.318,9.035 -3.769,11.042l-14.811,7.273c-4.087,2.007 -9.035,0.318 -11.042,-3.769l-20.444,-41.634Z" style="fill:#fd6785;"/><path d="M304.791,120.576c49.716,29.54 71.792,56.355 82,82l-63.243,34c0,0 -22.036,-23.809 -22.958,-26c-0.922,-2.19 29.709,-45.345 -0,-86c-29.709,-40.654 4.201,-4 4.201,-4Z" style="fill:#1c88a8;"/><path d="M292.791,198.757c0,0 33.502,5.736 35,0c1.498,-5.736 15.433,-4.834 19,-5.181c3.567,-0.346 6.089,-4.524 9,-4c2.911,0.525 9.824,4.052 12,5c2.176,0.948 -2.913,-3.61 11,-3c13.914,0.611 20.087,8.493 17,13c-3.086,4.508 -13.474,31.885 -33,28c-19.525,-3.884 -70,-33.819 -70,-33.819Z" style="fill:#187692;"/></g><path d="M406.618,119.324c1.574,1.88 5.683,6.762 7.173,8.252c1.86,1.86 3.634,-0.527 5,1c1.366,1.528 -0.031,5.462 0,8c0.031,2.539 31.108,67.528 31.34,74c0.232,6.473 33.53,7.358 39.66,8c6.13,0.643 -6.634,35.668 -5,38c4.776,6.815 15.312,-35.034 16,-41l3,-10c0.74,-26.21 -2.431,-53.31 -17,-83l48,32l-4,141l-66.747,27l-54.253,-46c0,0 5.394,-35.189 5,-40.736c-0.394,-5.547 -13.439,-51.792 -15,-61.264c-1.561,-9.471 -7.923,-19.149 -11,-28c-1.26,-3.625 -1.656,-7.804 -1.684,-11.474c-1.215,-1.319 -1.242,-3.374 -0.012,-4.725l0.179,-0.197c0.203,-2.766 0.517,-4.604 0.517,-4.604l5.65,-2.172l10.319,-11.34c1.3,-1.428 3.516,-1.533 4.944,-0.233c1.429,1.301 1.533,3.516 0.233,4.945l-2.319,2.548Z" style="fill:#e3eff3;"/><path d="M484.791,127.576c0,0 -12.937,-8.942 -15,-10c-2.062,-1.057 -10.13,0.31 -14,0c-3.869,-0.31 -2.298,-2.634 -7.969,-4c-6.976,-1.68 -25.554,6.762 -27.031,9c-1.4,2.123 -35.707,39.588 -38,45c-1.743,4.116 -0.208,7.781 3.393,8c4.598,0.28 28.169,-38.506 34.607,-46c6.439,-7.493 19.385,-10.146 22,-10c2.615,0.147 7.53,1.106 11,1c3.471,-0.105 14.789,1 14.789,1c0,0 12.094,9.067 14.753,9c2.659,-0.066 1.458,-3 1.458,-3Z" style="fill:#edf5f7;"/><path d="M402.791,166.576c0,0 -1.116,-5.887 -2,-8c-0.883,-2.112 -10.97,8.228 -11,10c-0.03,1.772 -0.717,5.61 0,7.002c0.718,1.392 3.301,1.064 5,-0c1.699,-1.064 8,-9.002 8,-9.002Z" style="fill:#676767;"/><path d="M401.791,146.576l-8,7" style="fill:none;stroke:#272727;stroke-width:2.75px;stroke-linejoin:round;stroke-miterlimit:1.5;"/><path d="M464.163,218.641c0.934,-3.749 4.736,-6.035 8.485,-5.101c3.748,0.934 6.034,4.736 5.1,8.485c-2.307,21.947 -7.067,40.215 -13.823,55.487c-0.934,3.749 -4.736,6.034 -8.485,5.101c-3.749,-0.934 -6.034,-4.736 -5.1,-8.485l13.823,-55.487Z" style="fill:#404040;"/><clipPath id="_clip57"><path d="M464.163,218.641c0.934,-3.749 4.736,-6.035 8.485,-5.101c3.748,0.934 6.034,4.736 5.1,8.485c-2.307,21.947 -7.067,40.215 -13.823,55.487c-0.934,3.749 -4.736,6.034 -8.485,5.101c-3.749,-0.934 -6.034,-4.736 -5.1,-8.485l13.823,-55.487Z"/></clipPath><g clip-path="url(#_clip57)"><path d="M452.472,238.262c0.934,-3.749 4.736,-6.035 8.485,-5.101c3.749,0.934 6.034,4.736 5.1,8.485l-4.442,17.829c-0.934,3.748 -4.735,6.034 -8.484,5.1c-3.749,-0.934 -6.034,-4.736 -5.1,-8.485l4.441,-17.828Z" style="fill:#121212;"/><path d="M469.339,210.195c0.158,-3.86 3.421,-6.866 7.281,-6.707c3.86,0.158 6.866,3.42 6.707,7.281l-0.753,18.358c-0.158,3.86 -3.421,6.865 -7.281,6.707c-3.86,-0.158 -6.865,-3.421 -6.707,-7.281l0.753,-18.358Z" style="fill:#121212;"/></g></g></g></g><g id="Arm_Right"><g id="Bicep_Right"><path id="Bicep" d="M335.791,396.576c0.192,4.481 -20.83,68.341 -43,79c-22.17,10.66 -49,7 -49,7l-9,-38c0,0 13.822,-53.882 25,-60c11.178,-6.117 31.333,-16 44,-14c12.667,2 31.808,21.52 32,26Z" style="fill:#121212;"/><clipPath id="_clip58"><path d="M335.791,396.576c0.192,4.481 -20.83,68.341 -43,79c-22.17,10.66 -49,7 -49,7l-9,-38c0,0 13.822,-53.882 25,-60c11.178,-6.117 31.333,-16 44,-14c12.667,2 31.808,21.52 32,26Z"/></clipPath><g clip-path="url(#_clip58)"><path d="M302.791,427.576l-13,-3c0,0 -7.387,25.31 -9,31c-1.613,5.691 2.338,7.63 2,12c-0.338,4.371 5,3 5,3c8.173,-12.852 12.525,-27.488 15,-43Z" style="fill:#202020;"/><path d="M281.791,422.576c2.303,3.685 -6.058,34.255 -10,32c-2.439,0.15 -16,-8 -16,-8l3,-17c8.161,-3.609 15.219,-7.19 23,-7Z" style="fill:#202020;"/></g><path id="Joint1" serif:id="Joint" d="M273.791,464.576c0,0 -37.052,-23.691 -41,-18c-3.948,5.692 -24.936,38.405 -23,46c2.98,11.694 53.738,22.171 53,17c-0.378,-2.646 21.342,-22.188 22,-28c0.658,-5.811 -11,-17 -11,-17Z" style="fill:#121212;"/><clipPath id="_clip59"><path d="M273.791,464.576c0,0 -37.052,-23.691 -41,-18c-3.948,5.692 -24.936,38.405 -23,46c2.98,11.694 53.738,22.171 53,17c-0.378,-2.646 21.342,-22.188 22,-28c0.658,-5.811 -11,-17 -11,-17Z"/></clipPath><g clip-path="url(#_clip59)"><path d="M266.791,469.576c-2.861,0.197 -5.307,7.207 -8,11c-2.693,3.794 -10.228,13.966 -11,16c-0.771,2.034 -1.102,7.736 2,8c3.103,0.265 16.729,-6.64 19,-12c4.877,-11.51 0.861,-23.197 -2,-23Z" style="fill:#202020;"/></g></g><g id="Shoulder_Right"><path d="M305.291,325.076c-25.112,-3.035 -45.5,15.784 -45.5,42c0,26.216 20.388,49.965 45.5,53c25.112,3.036 45.5,-15.784 45.5,-42c0,-26.216 -20.388,-49.964 -45.5,-53Z" style="fill:#121212;"/><path d="M321.791,370.576c0,0 -14.97,-22.484 -19,-26c-4.029,-3.515 -16.269,-16.49 -27,-19c-10.73,-2.51 -48.438,13.454 -48,41c0.438,27.547 17,48 17,48l23,4l17,-19c23.401,2.344 35.909,-7.134 37,-29Z" style="fill:#fff;"/><clipPath id="_clip60"><path d="M321.791,370.576c0,0 -14.97,-22.484 -19,-26c-4.029,-3.515 -16.269,-16.49 -27,-19c-10.73,-2.51 -48.438,13.454 -48,41c0.438,27.547 17,48 17,48l23,4l17,-19c23.401,2.344 35.909,-7.134 37,-29Z"/></clipPath><g clip-path="url(#_clip60)"><path d="M225.791,359.576c5.35,-3.89 68.607,22.708 80,38" style="fill:none;stroke:#b6d6e0;stroke-width:8.33px;stroke-linejoin:round;stroke-miterlimit:1.5;"/><path d="M272.791,318.576c2.652,3.082 6.155,9.306 2,11c-4.154,1.695 -8,3 -8,3c0,0 1.757,0.982 2,5c0.244,4.019 -21.103,10.621 -22,18c-0.897,7.38 -0.045,41.062 3,43c3.045,1.939 -1.087,4.722 0,6c1.087,1.279 5.877,3.12 9,3c3.123,-0.119 3.233,-2.048 3,-5c-0.233,-2.951 11.134,-17.247 18,-19c6.866,-1.752 18.004,1.344 20,3c1.997,1.657 11.501,3.758 12,6c0.499,2.243 -10.426,15.999 -16,19c-5.574,3.001 -31.673,14.539 -35,15c-3.327,0.462 -66.905,-24.546 -66,-31c0.905,-6.453 19,-64 19,-64c0,0 56.348,-16.081 59,-13Z" style="fill:#e3eff3;fill-opacity:0.21;"/><path d="M289.791,327.576c0,0 1.71,9.49 0,13c-1.71,3.511 -4.468,6.605 -3,12c1.468,5.395 8.061,25.779 15,26c6.939,0.222 16.255,-14.18 14,-23c-2.255,-8.819 -13.368,-29.286 -16,-30c-2.631,-0.714 -10,2 -10,2Z" style="fill:#e3eff3;"/><path d="M287.791,327.576c-11.869,-11.593 -75.968,33.544 -54,72" style="fill:none;stroke:#121212;stroke-width:8.33px;stroke-linejoin:round;stroke-miterlimit:1.5;"/></g><path d="M304.791,342.576c0,0 19.857,22.034 17,38c-4.332,24.211 -38,26 -38,26" style="fill:none;stroke:#fd6785;stroke-width:8.33px;stroke-linejoin:round;stroke-miterlimit:1.5;"/></g><g id="Hand_Right"><path id="Ulna1" serif:id="Ulna" d="M202.791,500.914c0,-9.569 7.057,-15.097 15.75,-12.338l31.5,10c8.693,2.76 15.75,12.769 15.75,22.338l0,80.325c0,9.569 -7.057,15.097 -15.75,12.337l-31.5,-10c-8.693,-2.759 -15.75,-12.768 -15.75,-22.337l0,-80.325Z" style="fill:#121212;"/><clipPath id="_clip61"><path d="M202.791,500.914c0,-9.569 7.057,-15.097 15.75,-12.338l31.5,10c8.693,2.76 15.75,12.769 15.75,22.338l0,80.325c0,9.569 -7.057,15.097 -15.75,12.337l-31.5,-10c-8.693,-2.759 -15.75,-12.768 -15.75,-22.337l0,-80.325Z"/></clipPath><g clip-path="url(#_clip61)"><path d="M239.791,497.576c0,0 -10.933,-8.225 -15,-2c-4.067,6.226 -2.062,8.209 -1,8c1.063,-0.208 -6.078,6.253 -5,10c1.079,3.748 11.567,11.579 18,14c6.433,2.422 15.178,2.731 17,4c1.822,1.27 6.203,5.604 8,6c1.797,0.396 9.634,7.734 6,2c-3.633,-5.733 -9.673,-9.003 -10,-11c-0.327,-1.996 0.618,3.24 1,-6c0.382,-9.24 0.615,-11.354 0,-14c-0.614,-2.645 -6.717,4.937 -11,2c-4.282,-2.936 -8,-13 -8,-13Z" style="fill:#202020;"/></g><g id="Hand1" serif:id="Hand"><g id="Pinky1" serif:id="Pinky"><path d="M173.142,683.038c-3.736,-3.159 -5.369,-9.222 -3.645,-13.532l6.246,-15.617c1.724,-4.309 6.157,-5.244 9.892,-2.085l27.996,23.672c3.735,3.158 5.369,9.222 3.645,13.531l-6.247,15.617c-1.724,4.309 -6.156,5.244 -9.892,2.085l-27.995,-23.671Z" style="fill:#121212;"/><clipPath id="_clip62"><path d="M173.142,683.038c-3.736,-3.159 -5.369,-9.222 -3.645,-13.532l6.246,-15.617c1.724,-4.309 6.157,-5.244 9.892,-2.085l27.996,23.672c3.735,3.158 5.369,9.222 3.645,13.531l-6.247,15.617c-1.724,4.309 -6.156,5.244 -9.892,2.085l-27.995,-23.671Z"/></clipPath><g clip-path="url(#_clip62)"><path d="M169.083,696.832c-3.824,-2.514 -5.814,-7.963 -4.441,-12.161l4.975,-15.211c1.373,-4.197 5.593,-5.564 9.417,-3.05l17.26,11.347c3.824,2.514 5.814,7.963 4.441,12.161l-4.975,15.211c-1.373,4.198 -5.593,5.564 -9.417,3.05l-17.26,-11.347Z" style="fill:#2c2c2c;"/></g><path d="M261.308,672.577c-1.636,3.864 -5.978,6.846 -9.688,6.655l-15.922,-0.82c-3.711,-0.191 -5.395,-3.483 -3.758,-7.348l5.93,-14.003c7.227,-12.436 30.204,-14.255 29.369,1.513l-5.931,14.003Z" style="fill:#121212;"/><clipPath id="_clip63"><path d="M261.308,672.577c-1.636,3.864 -5.978,6.846 -9.688,6.655l-15.922,-0.82c-3.711,-0.191 -5.395,-3.483 -3.758,-7.348l5.93,-14.003c7.227,-12.436 30.204,-14.255 29.369,1.513l-5.931,14.003Z"/></clipPath><g clip-path="url(#_clip63)"><path d="M275.191,671.797c-1.596,3.769 -6.075,6.344 -9.996,5.747l-17.981,-2.739c-3.921,-0.597 -5.808,-4.141 -4.212,-7.91l5.784,-13.657c1.596,-3.768 6.075,-6.343 9.996,-5.746l17.981,2.738c3.92,0.597 5.808,4.141 4.212,7.91l-5.784,13.657Z" style="fill:#2c2c2c;"/></g><path d="M218.581,701.509c-4.349,1.495 -9.83,-0.352 -12.233,-4.122l-8.708,-13.662c-2.404,-3.77 -0.824,-8.044 3.525,-9.539l29.197,-10.037c4.349,-1.495 9.831,0.352 12.234,4.122l8.708,13.662c2.403,3.77 0.823,8.044 -3.526,9.539l-29.197,10.037Z" style="fill:#121212;"/><clipPath id="_clip64"><path d="M218.581,701.509c-4.349,1.495 -9.83,-0.352 -12.233,-4.122l-8.708,-13.662c-2.404,-3.77 -0.824,-8.044 3.525,-9.539l29.197,-10.037c4.349,-1.495 9.831,0.352 12.234,4.122l8.708,13.662c2.403,3.77 0.823,8.044 -3.526,9.539l-29.197,10.037Z"/></clipPath><g clip-path="url(#_clip64)"><path d="M230.22,704.207c-4.05,1.393 -9.155,-0.327 -11.393,-3.838l-9.306,-14.601c-2.238,-3.511 -0.767,-7.492 3.283,-8.884l14.677,-5.045c4.05,-1.393 9.155,0.327 11.393,3.838l9.306,14.601c2.238,3.511 0.767,7.492 -3.283,8.884l-14.677,5.045Z" style="fill:#2c2c2c;"/></g></g><g id="Ring1" serif:id="Ring"><path d="M186.972,591.318c-0.131,-5.739 4.078,-11.671 9.393,-13.239l19.26,-5.681c5.315,-1.568 9.736,1.819 9.867,7.558l0.764,33.583c0.13,5.739 -4.079,11.671 -9.394,13.238l-19.26,5.681c-5.315,1.568 -9.736,-1.818 -9.867,-7.557l-0.763,-33.583Z" style="fill:#121212;"/><clipPath id="_clip65"><path d="M186.972,591.318c-0.131,-5.739 4.078,-11.671 9.393,-13.239l19.26,-5.681c5.315,-1.568 9.736,1.819 9.867,7.558l0.764,33.583c0.13,5.739 -4.079,11.671 -9.394,13.238l-19.26,5.681c-5.315,1.568 -9.736,-1.818 -9.867,-7.557l-0.763,-33.583Z"/></clipPath><g clip-path="url(#_clip65)"><path d="M171.265,596.9c-0.865,-5.087 2.319,-10.6 7.106,-12.304l18.395,-6.55c4.787,-1.705 9.375,1.04 10.241,6.126l3.134,18.431c0.865,5.086 -2.319,10.599 -7.106,12.304l-18.394,6.55c-4.788,1.704 -9.376,-1.041 -10.241,-6.127l-3.135,-18.43Z" style="fill:#2c2c2c;"/></g><path d="M193.113,633.994c-2.256,-4.435 -0.661,-10.149 3.561,-12.751l15.298,-9.432c4.221,-2.602 9.481,-1.114 11.737,3.321l14.092,27.699c2.256,4.435 0.661,10.149 -3.561,12.751l-15.298,9.431c-4.221,2.603 -9.481,1.115 -11.737,-3.32l-14.092,-27.699Z" style="fill:#121212;"/><clipPath id="_clip66"><path d="M193.113,633.994c-2.256,-4.435 -0.661,-10.149 3.561,-12.751l15.298,-9.432c4.221,-2.602 9.481,-1.114 11.737,3.321l14.092,27.699c2.256,4.435 0.661,10.149 -3.561,12.751l-15.298,9.431c-4.221,2.603 -9.481,1.115 -11.737,-3.32l-14.092,-27.699Z"/></clipPath><g clip-path="url(#_clip66)"><path d="M190.805,645.346c-2.006,-3.944 -0.588,-9.024 3.166,-11.338l16.994,-10.477c3.754,-2.314 8.43,-0.991 10.436,2.952l7.269,14.289c2.007,3.944 0.588,9.024 -3.165,11.338l-16.995,10.477c-3.753,2.314 -8.429,0.991 -10.435,-2.952l-7.27,-14.289Z" style="fill:#2c2c2c;"/></g><path d="M219.742,676.591c-3.113,-3.299 -3.644,-8.656 -1.186,-11.955l10.549,-14.153c2.458,-3.299 6.982,-3.298 10.095,0.001l11.281,11.957c8.828,12.407 -3.203,34.236 -19.457,26.107l-11.282,-11.957Z" style="fill:#121212;"/><clipPath id="_clip67"><path d="M219.742,676.591c-3.113,-3.299 -3.644,-8.656 -1.186,-11.955l10.549,-14.153c2.458,-3.299 6.982,-3.298 10.095,0.001l11.281,11.957c8.828,12.407 -3.203,34.236 -19.457,26.107l-11.282,-11.957Z"/></clipPath><g clip-path="url(#_clip67)"><path d="M212.134,689.631c-3.036,-3.218 -3.084,-8.475 -0.107,-11.731l13.986,-15.299c2.977,-3.256 7.859,-3.287 10.896,-0.069l11.002,11.661c3.036,3.218 3.084,8.474 0.107,11.73l-13.986,15.299c-2.977,3.256 -7.859,3.288 -10.895,0.07l-11.003,-11.661Z" style="fill:#2c2c2c;"/></g></g><g id="Middle1" serif:id="Middle"><path d="M188.801,620.781c-0.138,-6.074 4.316,-12.352 9.941,-14.011l20.383,-6.012c5.624,-1.659 10.303,1.925 10.441,7.998l0.736,32.372c0.139,6.073 -4.316,12.351 -9.941,14.01l-20.382,6.012c-5.625,1.659 -10.303,-1.925 -10.442,-7.998l-0.736,-32.371Z" style="fill:#121212;"/><clipPath id="_clip68"><path d="M188.801,620.781c-0.138,-6.074 4.316,-12.352 9.941,-14.011l20.383,-6.012c5.624,-1.659 10.303,1.925 10.441,7.998l0.736,32.372c0.139,6.073 -4.316,12.351 -9.941,14.01l-20.382,6.012c-5.625,1.659 -10.303,-1.925 -10.442,-7.998l-0.736,-32.371Z"/></clipPath><g clip-path="url(#_clip68)"><path d="M172.164,626.027c-0.909,-5.073 2.248,-10.566 7.045,-12.258l20.445,-7.211c4.797,-1.692 9.429,1.053 10.337,6.126l3.292,18.385c0.909,5.073 -2.248,10.565 -7.045,12.257l-20.445,7.212c-4.797,1.691 -9.429,-1.054 -10.337,-6.127l-3.292,-18.384Z" style="fill:#2c2c2c;"/></g><path d="M245.077,684.865c-4.077,1.989 -9.518,0.668 -12.142,-2.948l-11.261,-15.514c-2.624,-3.616 -1.445,-8.167 2.632,-10.156l14.775,-7.207c14.581,-4.583 33.052,15.081 20.77,28.617l-14.774,7.208Z" style="fill:#121212;"/><clipPath id="_clip69"><path d="M245.077,684.865c-4.077,1.989 -9.518,0.668 -12.142,-2.948l-11.261,-15.514c-2.624,-3.616 -1.445,-8.167 2.632,-10.156l14.775,-7.207c14.581,-4.583 33.052,15.081 20.77,28.617l-14.774,7.208Z"/></clipPath><g clip-path="url(#_clip69)"><path d="M256.001,697.035c-3.977,1.939 -9.032,0.436 -11.283,-3.356l-12.21,-20.569c-2.251,-3.791 -0.85,-8.445 3.126,-10.384l14.409,-7.03c3.976,-1.939 9.032,-0.436 11.283,3.356l12.21,20.569c2.251,3.791 0.85,8.445 -3.126,10.384l-14.409,7.03Z" style="fill:#2c2c2c;"/></g><path d="M195.222,666.627c-4.263,-3.512 -5.173,-10.034 -2.031,-14.555l11.386,-16.381c3.142,-4.521 9.153,-5.339 13.416,-1.826l22.453,18.501c4.263,3.513 5.173,10.035 2.031,14.556l-11.386,16.381c-3.142,4.521 -9.154,5.339 -13.416,1.826l-22.453,-18.502Z" style="fill:#121212;"/><clipPath id="_clip70"><path d="M195.222,666.627c-4.263,-3.512 -5.173,-10.034 -2.031,-14.555l11.386,-16.381c3.142,-4.521 9.153,-5.339 13.416,-1.826l22.453,18.501c4.263,3.513 5.173,10.035 2.031,14.556l-11.386,16.381c-3.142,4.521 -9.154,5.339 -13.416,1.826l-22.453,-18.502Z"/></clipPath><g clip-path="url(#_clip70)"><path d="M196.421,677.978c-3.414,-2.813 -4.143,-8.037 -1.627,-11.658l13.652,-19.642c2.517,-3.621 7.332,-4.276 10.746,-1.462l12.373,10.195c3.414,2.814 4.143,8.037 1.626,11.658l-13.651,19.642c-2.517,3.621 -7.332,4.276 -10.746,1.463l-12.373,-10.196Z" style="fill:#2c2c2c;"/></g></g><g id="Index1" serif:id="Index"><path d="M215.372,609.924c-0.138,-6.074 4.316,-12.351 9.941,-14.011l20.382,-6.012c5.625,-1.659 10.304,1.925 10.442,7.998l0.736,32.372c0.138,6.073 -4.316,12.351 -9.941,14.01l-20.382,6.012c-5.625,1.659 -10.304,-1.925 -10.442,-7.998l-0.736,-32.371Z" style="fill:#121212;"/><clipPath id="_clip71"><path d="M215.372,609.924c-0.138,-6.074 4.316,-12.351 9.941,-14.011l20.382,-6.012c5.625,-1.659 10.304,1.925 10.442,7.998l0.736,32.372c0.138,6.073 -4.316,12.351 -9.941,14.01l-20.382,6.012c-5.625,1.659 -10.304,-1.925 -10.442,-7.998l-0.736,-32.371Z"/></clipPath><g clip-path="url(#_clip71)"><path d="M198.735,615.17c-0.909,-5.073 2.248,-10.566 7.045,-12.258l20.445,-7.211c4.797,-1.692 9.429,1.053 10.337,6.127l3.292,18.384c0.909,5.073 -2.248,10.565 -7.045,12.257l-20.445,7.212c-4.797,1.692 -9.429,-1.054 -10.337,-6.127l-3.292,-18.384Z" style="fill:#2c2c2c;"/></g><path d="M244.526,666.377c-5.5,0.516 -10.745,-3.466 -11.706,-8.887l-3.481,-19.643c-0.961,-5.421 2.724,-10.241 8.224,-10.757l20.966,-1.967c5.499,-0.516 10.744,3.466 11.705,8.886l3.481,19.644c0.961,5.42 -2.724,10.24 -8.223,10.756l-20.966,1.968Z" style="fill:#121212;"/><clipPath id="_clip72"><path d="M244.526,666.377c-5.5,0.516 -10.745,-3.466 -11.706,-8.887l-3.481,-19.643c-0.961,-5.421 2.724,-10.241 8.224,-10.757l20.966,-1.967c5.499,-0.516 10.744,3.466 11.705,8.886l3.481,19.644c0.961,5.42 -2.724,10.24 -8.223,10.756l-20.966,1.968Z"/></clipPath><g clip-path="url(#_clip72)"><path d="M250.531,673.846c-3.684,0.346 -7.198,-2.322 -7.842,-5.953l-4.63,-26.128c-0.644,-3.631 1.825,-6.86 5.509,-7.206l13.35,-1.252c3.684,-0.346 7.198,2.321 7.842,5.953l4.63,26.127c0.644,3.632 -1.825,6.86 -5.509,7.206l-13.35,1.253Z" style="fill:#2c2c2c;"/></g><path d="M283.95,642.162c-1.37,3.823 -5.825,6.353 -9.944,5.646l-17.672,-3.032c-4.119,-0.707 -6.352,-4.385 -4.982,-8.208l4.961,-13.854c6.571,-12.036 31.734,-10.804 32.598,5.594l-4.961,13.854Z" style="fill:#121212;"/><clipPath id="_clip73"><path d="M283.95,642.162c-1.37,3.823 -5.825,6.353 -9.944,5.646l-17.672,-3.032c-4.119,-0.707 -6.352,-4.385 -4.982,-8.208l4.961,-13.854c6.571,-12.036 31.734,-10.804 32.598,5.594l-4.961,13.854Z"/></clipPath><g clip-path="url(#_clip73)"><path d="M299.189,643.24c-1.335,3.729 -5.517,5.938 -9.332,4.931l-22.271,-5.878c-3.815,-1.007 -5.828,-4.852 -4.493,-8.581l4.839,-13.511c1.336,-3.728 5.517,-5.938 9.333,-4.931l22.27,5.879c3.815,1.007 5.829,4.852 4.493,8.58l-4.839,13.511Z" style="fill:#2c2c2c;"/></g></g><g id="Thumb1" serif:id="Thumb"><path d="M243.18,591.771c-4.846,-1.638 -7.451,-6.902 -5.814,-11.749l5.935,-17.562c1.637,-4.846 6.901,-7.451 11.748,-5.813l21.802,7.367c4.847,1.638 7.452,6.902 5.814,11.748l-5.934,17.562c-1.638,4.847 -6.902,7.452 -11.748,5.814l-21.803,-7.367Z" style="fill:#121212;"/><clipPath id="_clip74"><path d="M243.18,591.771c-4.846,-1.638 -7.451,-6.902 -5.814,-11.749l5.935,-17.562c1.637,-4.846 6.901,-7.451 11.748,-5.813l21.802,7.367c4.847,1.638 7.452,6.902 5.814,11.748l-5.934,17.562c-1.638,4.847 -6.902,7.452 -11.748,5.814l-21.803,-7.367Z"/></clipPath><g clip-path="url(#_clip74)"><path d="M255.639,566.35c-2.312,0.286 -12.481,7.223 -14.832,10.216c-2.351,2.993 -3.136,6.15 -2.03,6.836c1.107,0.685 5.193,4.106 5.193,4.106c8.51,-11.592 16.839,-16.147 25.123,-18.959c-0,-0 -11.142,-2.485 -13.454,-2.199Z" style="fill:#2c2c2c;"/></g><path d="M261.791,595.246c0.346,-5.104 4.77,-8.967 9.874,-8.621l18.495,1.253c5.104,0.345 8.967,4.77 8.622,9.874l-1.916,28.289c-0.346,5.104 -4.77,8.967 -9.874,8.621l-18.496,-1.253c-5.103,-0.345 -8.967,-4.77 -8.621,-9.874l1.916,-28.289Z" style="fill:#121212;"/><clipPath id="_clip75"><path d="M261.791,595.246c0.346,-5.104 4.77,-8.967 9.874,-8.621l18.495,1.253c5.104,0.345 8.967,4.77 8.622,9.874l-1.916,28.289c-0.346,5.104 -4.77,8.967 -9.874,8.621l-18.496,-1.253c-5.103,-0.345 -8.967,-4.77 -8.621,-9.874l1.916,-28.289Z"/></clipPath><g clip-path="url(#_clip75)"><path d="M265.763,607.163c0.346,-5.104 -3.174,-12.939 1.93,-12.593l15.847,-0.072c5.104,0.346 7.643,8.743 7.297,13.847l-5.888,15.047c-0.346,5.104 -0.798,2.347 -5.902,2.001l-18.495,-1.253c-5.104,-0.345 -3.671,0.527 -3.325,-4.577l8.536,-12.4Z" style="fill:#2c2c2c;"/></g><path d="M261.876,613.256c3.269,-2.752 8.156,-2.333 10.908,0.935l13.907,16.518c2.752,3.268 2.333,8.156 -0.935,10.908l-11.844,9.972c-3.268,2.752 -8.156,2.332 -10.908,-0.936l-13.907,-16.517c-2.752,-3.269 -2.333,-8.156 0.936,-10.908l11.843,-9.972Z" style="fill:#121212;"/><clipPath id="_clip76"><path d="M261.876,613.256c3.269,-2.752 8.156,-2.333 10.908,0.935l13.907,16.518c2.752,3.268 2.333,8.156 -0.935,10.908l-11.844,9.972c-3.268,2.752 -8.156,2.332 -10.908,-0.936l-13.907,-16.517c-2.752,-3.269 -2.333,-8.156 0.936,-10.908l11.843,-9.972Z"/></clipPath><g clip-path="url(#_clip76)"><path d="M270.76,646.94c0.203,-2.784 -5.432,-14.262 -8.333,-16.726c-2.9,-2.464 -6.349,-2.995 -7.392,-1.55c-1.043,1.445 -5.918,6.901 -5.918,6.901l12.888,13.448c0,-0 8.552,0.711 8.755,-2.073Z" style="fill:#2c2c2c;"/></g></g></g><g id="HandPiece1" serif:id="HandPiece"><path d="M268.791,544.576c-3.486,-3.905 -18.005,-12.793 -34,-12c-6.99,0.347 -24.535,-20.496 -27,-25c-2.465,-4.503 -4.149,-13.841 -14,-18c-16.69,-7.046 -45.823,42.177 -45,48c0,0 -2.009,149.189 29,158l17,-26c0,0 -2.278,-45.27 7,-49c12.789,-5.14 26.452,-20.758 25,-21l0,-4c12.648,-8.904 25.928,-13.589 40,-13c0,0 5.487,-34.094 2,-38Z" style="fill:#fff;"/><clipPath id="_clip77"><path d="M268.791,544.576c-3.486,-3.905 -18.005,-12.793 -34,-12c-6.99,0.347 -24.535,-20.496 -27,-25c-2.465,-4.503 -4.149,-13.841 -14,-18c-16.69,-7.046 -45.823,42.177 -45,48c0,0 -2.009,149.189 29,158l17,-26c0,0 -2.278,-45.27 7,-49c12.789,-5.14 26.452,-20.758 25,-21l0,-4c12.648,-8.904 25.928,-13.589 40,-13c0,0 5.487,-34.094 2,-38Z"/></clipPath><g clip-path="url(#_clip77)"><path d="M190.791,477.576c0,0 13.982,7.85 13,23c-0.982,15.151 -8.568,34.852 -7,46c1.568,11.149 6.406,39.913 14,45c13.376,-4.167 25.557,-6.741 30,1l22,-3c0,0 2.686,-16.029 0,-27c-2.686,-10.97 1.852,-5.413 0,-10c-1.851,-4.586 -4.864,-7.732 -6,-12c-1.136,-4.267 5,-16 5,-16l17,8c0,0 9.72,110.445 4,118c-5.72,7.555 -132,62 -132,62l-21,-219l59,-18l2,2Z" style="fill:none;"/><path d="M271.791,577.576c-18.046,-29.746 -103.677,-7.33 -129,58" style="fill:none;stroke:#e3eff3;stroke-width:8.33px;stroke-linejoin:round;stroke-miterlimit:1.5;"/><path d="M193.791,575.576c0,0 -13.343,-4.23 -17,0c-3.657,4.231 -21.824,21.884 -22,26c-0.176,4.117 4,11 4,11l35,-37Z" style="fill:#e3eff3;"/><path d="M190.791,579.576l-12,0c-7.49,7.51 -14.091,15.909 -20,25l0,7c7.829,-10.548 16.544,-21.133 32,-32Z" style="fill:#404242;"/></g><path d="M221.791,513.576c-2.955,1.887 -11.791,-4.785 -15,-12c-3.209,-7.214 -7.851,-12.735 -14,-13c-14.411,-0.62 -43.39,38.892 -43,50c-1.302,-12.841 1.708,-25.855 8,-39c0,0 25.985,-24.46 34,-26c13.464,-2.586 37.764,35.043 30,40Z" style="fill:#fd6785;"/><clipPath id="_clip78"><path d="M221.791,513.576c-2.955,1.887 -11.791,-4.785 -15,-12c-3.209,-7.214 -7.851,-12.735 -14,-13c-14.411,-0.62 -43.39,38.892 -43,50c-1.302,-12.841 1.708,-25.855 8,-39c0,0 25.985,-24.46 34,-26c13.464,-2.586 37.764,35.043 30,40Z"/></clipPath><g clip-path="url(#_clip78)"><path d="M177.791,477.576c-1.665,4.596 -4.335,11.785 -3,14c1.335,2.216 13.817,4.569 9,10c-4.816,5.431 -22.335,29.177 -24,32c-1.665,2.824 -20.449,12.709 -20,6c0.449,-6.708 14.057,-53.962 15,-55c0.943,-1.037 24.665,-11.595 23,-7Z" style="fill:#d44c77;"/></g></g><path id="HandPiece_Blue_Back1" serif:id="HandPiece_Blue_Back" d="M226.791,466.576l-15,-48c0,0 -1.041,-6.173 -8,-6c-6.959,0.174 -32,5 -32,5l-19,85c0,0 1.026,3.316 5,0c3.974,-3.315 31.807,-27.009 34,-27c2.193,0.01 23,21 23,21l12,-30Z" style="fill:#1c88a8;"/><clipPath id="_clip79"><path d="M226.791,466.576l-15,-48c0,0 -1.041,-6.173 -8,-6c-6.959,0.174 -32,5 -32,5l-19,85c0,0 1.026,3.316 5,0c3.974,-3.315 31.807,-27.009 34,-27c2.193,0.01 23,21 23,21l12,-30Z"/></clipPath><g clip-path="url(#_clip79)"><path d="M217.791,476.576c-2.731,-3.226 -14.876,-38.495 -19,-40c-4.123,-1.504 -19.712,-3.52 -22,-2c-2.288,1.521 -16.028,46.581 -14,49c2.028,2.42 3.554,3.353 9,3c5.446,-0.353 20.326,-0.735 22,-1c1.674,-0.264 17,2 17,2c0,0 9.731,-7.773 7,-11Z" style="fill:#187692;"/><path d="M188.791,472.576c-2.048,-1.391 -1.978,-39.482 -6,-41c-4.022,-1.517 -24.066,70.763 -28,72c-3.934,1.238 -13.459,0.421 -12,-8c1.459,-8.42 18.263,-71.44 20,-72c1.737,-0.559 24.415,-5.794 28,-5c3.585,0.795 6.769,6.092 7,8c0.231,1.909 -9,45 -9,45" style="fill:#31b5dd;"/></g></g></g><g id="Codpiece"><path d="M430.791,548.576c0,0 5.813,23.153 4,34c-3.979,23.806 -47,113 -47,113c0,0 -6.978,6.449 -11,5c-4.022,-1.448 -14,-43 -14,-43l46,-114l22,5Z" style="fill:#121212;"/><clipPath id="_clip80"><path d="M430.791,548.576c0,0 5.813,23.153 4,34c-3.979,23.806 -47,113 -47,113c0,0 -6.978,6.449 -11,5c-4.022,-1.448 -14,-43 -14,-43l46,-114l22,5Z"/></clipPath><g clip-path="url(#_clip80)"><path d="M414.791,561.576c0,0 7.383,21.576 12,24c4.617,2.424 6,2 6,2l-20,35l-14,-29l2.671,-7.341c-0,-0 9.423,-3.333 11.601,-7.361c2.221,-4.11 1.728,-17.298 1.728,-17.298Z" style="fill:#2c2c2c;"/><clipPath id="_clip81"><path d="M414.791,561.576c0,0 7.383,21.576 12,24c4.617,2.424 6,2 6,2l-20,35l-14,-29l2.671,-7.341c-0,-0 9.423,-3.333 11.601,-7.361c2.221,-4.11 1.728,-17.298 1.728,-17.298Z"/></clipPath><g clip-path="url(#_clip81)"><path d="M410.791,572.576c0.122,1.619 7,22 7,22l8,-5l6,11l8,-27l-28,-15c0,0 -1.122,12.382 -1,14Z" style="fill:#404242;"/></g><path d="M397.791,603.576c4.301,10.325 8.971,17.963 14,21c0,0 -8.013,15.301 -9,15c-0.987,-0.3 -9,-15 -9,-15l4,-21Z" style="fill:#2c2c2c;"/></g><path d="M425.791,524.576c-5.953,0.082 -23.395,8.356 -23,15c0.395,6.645 0.931,14.412 6,18c5.07,3.589 11,1 11,1c4.705,11.827 11.017,16.425 18,18c1.713,-10.954 2.997,-22.336 3,-35c0,0 -9.047,-17.081 -15,-17Z" style="fill:#fff;"/><clipPath id="_clip82"><path d="M425.791,524.576c-5.953,0.082 -23.395,8.356 -23,15c0.395,6.645 0.931,14.412 6,18c5.07,3.589 11,1 11,1c4.705,11.827 11.017,16.425 18,18c1.713,-10.954 2.997,-22.336 3,-35c0,0 -9.047,-17.081 -15,-17Z"/></clipPath><g clip-path="url(#_clip82)"><path d="M401.791,528.576c0,0 18.341,23.77 14,33c-0.915,1.948 6.391,-10.351 18.29,13.056c4.287,8.433 -44.419,-1.581 -44.29,-7.056c0.164,-6.938 12,-39 12,-39Z" style="fill:#b6d6e0;"/></g></g></svg>